<svg width="181" height="28" viewBox="0 0 181 28" fill="none" xmlns="http://www.w3.org/2000/svg">
<path d="M6.49962 0.549187V27.4884H0V0.549187H6.49962ZM41.4273 0.549187V27.4884H34.9277V11.3325L28.9602 27.4884H23.7149L17.7094 11.2942V27.4884H11.2098V0.549187H18.8877L26.3756 19.1994L33.7874 0.549187H41.4273ZM44.999 13.9804C44.999 11.3198 45.5691 8.95329 46.7094 6.88105C47.8497 4.78317 49.4335 3.15868 51.4606 2.00743C53.5131 0.830557 55.8317 0.242188 58.4163 0.242188C61.5839 0.242188 64.2952 1.08644 66.5503 2.77493C68.8057 4.46343 70.3133 6.76592 71.0735 9.68242H63.9277C63.3956 8.5568 62.6354 7.69967 61.6471 7.1113C60.6843 6.52293 59.582 6.22867 58.3403 6.22867C56.3386 6.22867 54.7168 6.93217 53.4751 8.33929C52.2335 9.74642 51.6126 11.6268 51.6126 13.9804C51.6126 16.334 52.2335 18.2144 53.4751 19.6215C54.7168 21.0286 56.3386 21.7321 58.3403 21.7321C59.582 21.7321 60.6843 21.4379 61.6471 20.8495C62.6354 20.2611 63.3956 19.404 63.9277 18.2784H71.0735C70.3133 21.1949 68.8057 23.4974 66.5503 25.1859C64.2952 26.8488 61.5839 27.6803 58.4163 27.6803C55.8317 27.6803 53.5131 27.1046 51.4606 25.9534C49.4335 24.7765 47.8497 23.152 46.7094 21.0798C45.5691 19.0075 44.999 16.641 44.999 13.9804ZM90.5237 27.4884L81.5535 15.5922V27.4884H75.0539V0.549187H81.5535V12.3687L90.4477 0.549187H98.0876L87.749 13.7502L98.4677 27.4884H90.5237Z" fill="#C6CDCB"/>
<path d="M171.401 23.3769C176.649 23.3769 180.903 19.0817 180.903 13.7832C180.903 8.48471 176.649 4.18945 171.401 4.18945C166.153 4.18945 161.899 8.48471 161.899 13.7832C161.899 19.0817 166.153 23.3769 171.401 23.3769Z" fill="#98A2A0"/>
<path d="M144.251 23.3769C149.499 23.3769 153.754 19.0817 153.754 13.7832C153.754 8.48471 149.499 4.18945 144.251 4.18945C139.003 4.18945 134.749 8.48471 134.749 13.7832C134.749 19.0817 139.003 23.3769 144.251 23.3769Z" fill="#A8B2B0"/>
<path d="M117.102 23.3769C122.35 23.3769 126.604 19.0817 126.604 13.7832C126.604 8.48471 122.35 4.18945 117.102 4.18945C111.854 4.18945 107.599 8.48471 107.599 13.7832C107.599 19.0817 111.854 23.3769 117.102 23.3769Z" fill="#C6CDCB"/>
</svg>
