<svg width="333" height="31" viewBox="0 0 333 31" fill="none" xmlns="http://www.w3.org/2000/svg">
<path d="M13.4006 30.2904C14.5158 30.0542 15.5887 29.6498 16.5824 29.091C17.4991 28.5864 18.2773 27.8636 18.848 26.9865C19.4286 26.0512 19.7221 24.9661 19.692 23.8657C19.7317 22.835 19.4482 21.8177 18.8813 20.956C18.3278 20.18 17.6017 19.5431 16.7601 19.0957C15.8822 18.6162 14.9501 18.2433 13.9836 17.9852C12.9896 17.7297 12.0512 17.5243 11.1572 17.3799C10.2631 17.2355 9.37468 17.0467 8.65835 16.869C8.0659 16.7366 7.50179 16.4997 6.99248 16.1694C6.8071 16.0497 6.65495 15.8852 6.55011 15.691C6.44527 15.4969 6.39115 15.2794 6.39276 15.0588C6.38104 14.8414 6.42607 14.6247 6.52343 14.43C6.62079 14.2353 6.76712 14.0692 6.94805 13.9482C7.36258 13.6715 7.82934 13.4825 8.31962 13.3929C8.83442 13.2826 9.35909 13.225 9.88555 13.2208C10.4357 13.2192 10.9828 13.3036 11.507 13.4706C11.9898 13.6148 12.4314 13.8718 12.7953 14.2203C12.9654 14.39 13.0985 14.593 13.1865 14.8166C13.2744 15.0402 13.3151 15.2796 13.3062 15.5197V15.764H19.4144V15.4808C19.446 14.1158 18.969 12.7878 18.0761 11.7548C17.1255 10.683 15.9233 9.86434 14.5778 9.37257C13.0765 8.8184 11.4856 8.54728 9.88555 8.57296C8.25496 8.55566 6.63308 8.81283 5.08782 9.3337C3.75189 9.75794 2.54985 10.5236 1.60059 11.5549C0.721644 12.5592 0.253688 13.8579 0.290096 15.192C0.253851 16.1735 0.51936 17.1426 1.05084 17.9685C1.57079 18.7353 2.26057 19.3719 3.06656 19.8287C3.9416 20.3294 4.87381 20.7228 5.84302 21.0004C6.80666 21.2789 7.78561 21.5014 8.77496 21.6667C10.0468 21.8532 11.3007 22.1467 12.5232 22.5441C12.857 22.629 13.1531 22.8222 13.3652 23.0936C13.5772 23.3649 13.6932 23.699 13.6949 24.0434C13.6994 24.2597 13.6512 24.4738 13.5544 24.6673C13.4577 24.8608 13.3153 25.0278 13.1396 25.154C12.7238 25.4593 12.2461 25.6697 11.7402 25.7704C11.1586 25.8986 10.5645 25.9619 9.96884 25.9592C9.01238 25.9972 8.06061 25.8069 7.19238 25.4039C6.87181 25.2541 6.60271 25.0129 6.41893 24.7105C6.23515 24.4082 6.1449 24.0582 6.15954 23.7047V23.427H0.00134123V23.788C-0.0219049 24.8456 0.257448 25.8879 0.806518 26.7921C1.37175 27.6697 2.13185 28.4051 3.02769 28.9411C4.00186 29.538 5.06457 29.9766 6.1762 30.2405C7.37307 30.5385 8.60215 30.6877 9.83557 30.6847C11.0422 30.6859 12.2452 30.5537 13.4228 30.2904" fill="#C6CDCB"/>
<path d="M44.8968 29.5634C44.6735 29.2035 44.5051 28.8124 44.397 28.4028C44.2735 27.9567 44.1972 27.4989 44.1694 27.0368C44.136 26.537 44.1194 26.0095 44.1194 25.4653V16.2808C44.1809 14.712 43.6652 13.175 42.6701 11.9606C41.6417 10.7861 40.3193 9.90636 38.8385 9.41183C37.1754 8.83219 35.4244 8.54475 33.6632 8.56223C31.8309 8.53474 30.009 8.8434 28.288 9.47291C26.8109 9.99961 25.5068 10.9216 24.5176 12.1383C23.5707 13.3753 23.0803 14.9015 23.1293 16.4585H29.2375C29.2053 16.0045 29.2905 15.5499 29.485 15.1385C29.6796 14.7271 29.9768 14.3727 30.3481 14.1096C31.3387 13.5363 32.4764 13.2678 33.6188 13.3377C34.7105 13.2796 35.7978 13.5154 36.7673 14.0208C37.1053 14.1991 37.3877 14.467 37.5836 14.7951C37.7795 15.1232 37.8813 15.4989 37.8779 15.881V15.9199C37.8779 16.3863 37.4337 16.7139 36.5507 16.8972C35.6678 17.0804 34.0519 17.2914 31.7197 17.5191C30.2034 17.6616 28.711 17.9936 27.2774 18.5075C26.0141 18.9386 24.8823 19.6861 23.99 20.6787C23.1341 21.7072 22.6926 23.018 22.7517 24.3548C22.7143 25.5684 23.0729 26.7613 23.7735 27.7531C24.495 28.7182 25.4749 29.4593 26.5999 29.891C27.9138 30.4041 29.3154 30.655 30.7257 30.6296C31.9746 30.6403 33.2184 30.4701 34.4184 30.1242C35.4826 29.8183 36.4833 29.3236 37.3726 28.6638C37.6696 28.4465 37.9482 28.205 38.2055 27.9419C38.261 28.1585 38.3277 28.3751 38.3999 28.5916C38.5188 28.9515 38.683 29.2949 38.8885 29.6134C39.0154 29.81 39.1585 29.9957 39.3161 30.1687H45.4243C45.2247 29.9889 45.0476 29.7857 44.8968 29.5634V29.5634ZM38.0001 20.8286C38.0488 21.8797 37.7694 22.9199 37.2004 23.805C36.686 24.5471 35.9689 25.1254 35.1347 25.4709C34.2697 25.8345 33.3411 26.0233 32.4027 26.0262C31.5145 26.0809 30.6285 25.8888 29.8428 25.4709C29.5632 25.2962 29.3361 25.0491 29.1856 24.7558C29.035 24.4626 28.9666 24.134 28.9877 23.805C28.9637 23.4577 29.0473 23.1114 29.2271 22.8134C29.407 22.5153 29.6743 22.2798 29.9927 22.1391C30.9636 21.7418 31.9939 21.5091 33.0413 21.4506C34.1926 21.3284 35.3421 21.1655 36.4897 20.9619C37.045 20.8675 37.5281 20.762 38.0001 20.6343V20.8286Z" fill="#C6CDCB"/>
<path d="M81.3016 16.6917V30.202H75.1046V18.4464C75.1049 17.8896 75.0715 17.3333 75.0046 16.7805C74.9475 16.2716 74.8048 15.776 74.5826 15.3146C74.3755 14.8773 74.0405 14.5132 73.6219 14.2706C73.075 14.0138 72.4768 13.8848 71.8726 13.8935C71.2684 13.9021 70.6741 14.0482 70.1347 14.3206C69.6493 14.6089 69.2415 15.011 68.9464 15.4923C68.6335 16.0074 68.4066 16.5701 68.2745 17.1581C68.1349 17.8021 68.066 18.4594 68.069 19.1183V30.2242H61.9108V18.502C61.9094 17.9603 61.8797 17.4191 61.822 16.8805C61.7659 16.3669 61.6311 15.8649 61.4222 15.3923C61.2214 14.937 60.8912 14.5508 60.4726 14.2817C59.9419 13.9829 59.3374 13.8404 58.729 13.8708C58.1361 13.851 57.5487 13.9897 57.0274 14.2728C56.5061 14.5559 56.0699 14.9731 55.7637 15.4812C55.4367 16.009 55.2038 16.5896 55.0752 17.197C54.9243 17.8639 54.8498 18.5457 54.8531 19.2294V30.202H48.656V8.97313H54.8642V11.794C55.4145 10.9872 56.1183 10.2966 56.9354 9.76165C58.214 8.94727 59.7068 8.53346 61.2223 8.57333C62.9918 8.57333 64.3745 8.94352 65.3703 9.68391C66.3653 10.4403 67.0992 11.4887 67.4693 12.6825C67.4718 12.6972 67.4718 12.7122 67.4693 12.7269C68.0717 11.5222 68.9768 10.4946 70.0958 9.74499C71.3732 8.92778 72.8669 8.51372 74.3827 8.55666C75.8356 8.48087 77.2749 8.86987 78.4919 9.66725C79.4954 10.3977 80.2496 11.4194 80.652 12.5936C81.1015 13.9124 81.3212 15.2986 81.3016 16.6917V16.6917Z" fill="#C6CDCB"/>
<path d="M107.289 29.5635C107.066 29.2036 106.898 28.8124 106.79 28.4029C106.661 27.9576 106.583 27.4995 106.556 27.0369C106.523 26.5371 106.506 26.0096 106.506 25.4654V16.2809C106.568 14.712 106.052 13.1751 105.057 11.9607C104.031 10.7861 102.71 9.90635 101.231 9.41191C99.5678 8.8327 97.817 8.54527 96.0558 8.56232C94.2216 8.53414 92.3978 8.84281 90.675 9.47299C89.1996 9.99982 87.8972 10.9218 86.9101 12.1384C85.9617 13.3749 85.4694 14.9009 85.5163 16.4586H91.6246C91.5912 16.0045 91.676 15.5495 91.8706 15.1379C92.0652 14.7263 92.363 14.3721 92.7351 14.1097C93.7238 13.5365 94.8596 13.268 96.0003 13.3378C97.092 13.2796 98.1793 13.5155 99.1488 14.0208C99.4872 14.1987 99.7699 14.4664 99.9659 14.7947C100.162 15.1229 100.263 15.4988 100.259 15.8811V15.9199C100.259 16.3864 99.8151 16.714 98.9267 16.8973C98.0382 17.0805 96.4334 17.2915 94.1012 17.5192C92.5849 17.6616 91.0925 17.9937 89.6588 18.5076C88.3956 18.9386 87.2638 19.6861 86.3715 20.6788C85.5156 21.7073 85.074 23.0181 85.1332 24.3548C85.0966 25.5676 85.453 26.7597 86.1494 27.7532C86.8731 28.7184 87.8548 29.4595 88.9814 29.8911C90.2953 30.4042 91.6969 30.6551 93.1072 30.6296C94.3542 30.6408 95.5963 30.4706 96.7943 30.1243C97.8602 29.8183 98.8627 29.3237 99.754 28.6639C100.039 28.4465 100.305 28.205 100.548 27.942C100.604 28.1586 100.67 28.3751 100.742 28.5917C100.864 28.9507 101.028 29.2937 101.231 29.6134C101.359 29.8106 101.504 29.9963 101.664 30.1687H107.772C107.588 29.9864 107.426 29.7833 107.289 29.5635V29.5635ZM100.398 20.8287C100.447 21.8798 100.167 22.92 99.5986 23.8051C99.0834 24.5486 98.364 25.1272 97.5273 25.471C96.6643 25.8352 95.7375 26.0239 94.8008 26.0263C93.9126 26.0819 93.0263 25.8897 92.2409 25.471C91.9607 25.2965 91.7329 25.0497 91.5814 24.7565C91.4299 24.4632 91.3604 24.1345 91.3802 23.8051C91.3575 23.4573 91.4423 23.1109 91.623 22.8129C91.8038 22.5149 92.0719 22.2797 92.3909 22.1392C93.3614 21.741 94.3919 21.5083 95.4394 21.4507C96.5833 21.3285 97.7328 21.1656 98.8878 20.962C99.4431 20.8676 99.9262 20.7621 100.398 20.6344V20.8287Z" fill="#C6CDCB"/>
<path d="M126.297 9.06169L125.281 14.6146C125.021 14.4923 124.754 14.3866 124.481 14.2981C123.965 14.1342 123.424 14.0591 122.882 14.076C121.957 14.0505 121.039 14.2406 120.2 14.6313C119.518 14.9632 118.925 15.4546 118.473 16.0639C118.04 16.6542 117.724 17.3213 117.54 18.0297C117.357 18.7427 117.264 19.4758 117.262 20.212V30.2072H111.043V8.97284H117.262V11.8381C117.549 11.3636 117.892 10.9255 118.284 10.5332C118.905 9.90385 119.65 9.41032 120.472 9.0839C121.398 8.72006 122.387 8.54267 123.382 8.56192C124.055 8.54279 124.728 8.6062 125.386 8.75072C125.699 8.82568 126.004 8.92979 126.297 9.06169V9.06169Z" fill="#C6CDCB"/>
<path d="M138.158 3.16465C138.334 3.01822 138.476 2.83486 138.573 2.62757C138.67 2.42029 138.72 2.19416 138.72 1.96522C138.72 1.73629 138.67 1.51016 138.573 1.30287C138.476 1.09559 138.334 0.912223 138.158 0.76579C137.784 0.464942 137.316 0.305663 136.836 0.316004C136.351 0.304583 135.878 0.463764 135.498 0.76579C135.322 0.912223 135.181 1.09559 135.083 1.30287C134.986 1.51016 134.936 1.73629 134.936 1.96522C134.936 2.19416 134.986 2.42029 135.083 2.62757C135.181 2.83486 135.322 3.01822 135.498 3.16465C135.878 3.46668 136.351 3.62586 136.836 3.61444C137.316 3.62478 137.784 3.4655 138.158 3.16465Z" fill="#98A2A0"/>
<path d="M138.03 8.97266H135.593V30.2015H138.03V8.97266Z" fill="#98A2A0"/>
<path d="M162.763 16.3477V30.2023H160.303V16.9474C160.328 15.8784 160.111 14.8175 159.67 13.8433C159.262 12.9645 158.588 12.2361 157.743 11.761C156.718 11.2237 155.569 10.9652 154.412 11.0113C153.226 11.0096 152.061 11.3157 151.03 11.8998C149.995 12.4814 149.12 13.3091 148.481 14.3098C147.835 15.3325 147.499 16.5207 147.515 17.7304V30.2023H145.033V8.97342H147.515V12.4718C148.308 11.3619 149.343 10.4467 150.541 9.79526C151.858 9.0602 153.342 8.67766 154.85 8.68467C156.302 8.65042 157.741 8.9626 159.048 9.59535C160.206 10.1717 161.164 11.083 161.797 12.2108C162.471 13.4831 162.804 14.9084 162.763 16.3477V16.3477Z" fill="#98A2A0"/>
<path d="M187.09 16.3477V30.2023H184.631V16.9474C184.655 15.8784 184.438 14.8175 183.997 13.8433C183.589 12.9645 182.915 12.2361 182.071 11.761C181.045 11.2237 179.896 10.9652 178.739 11.0113C177.554 11.0096 176.388 11.3157 175.357 11.8998C174.322 12.4814 173.447 13.3091 172.808 14.3098C172.162 15.3325 171.827 16.5207 171.842 17.7304V30.2023H169.36V8.97342H171.842V12.4718C172.635 11.3619 173.67 10.4467 174.868 9.79526C176.185 9.0602 177.67 8.67766 179.178 8.68467C180.629 8.65042 182.068 8.9626 183.376 9.59535C184.533 10.1717 185.491 11.083 186.124 12.2108C186.798 13.4831 187.131 14.9084 187.09 16.3477V16.3477Z" fill="#98A2A0"/>
<path d="M212.634 13.9487C211.761 12.3435 210.462 11.01 208.88 10.0949C207.185 9.1764 205.288 8.69531 203.361 8.69531C201.433 8.69531 199.536 9.1764 197.841 10.0949C196.259 11.01 194.96 12.3435 194.087 13.9487C193.158 15.6737 192.689 17.6092 192.727 19.5682C192.693 21.5321 193.162 23.472 194.087 25.2045C194.956 26.8332 196.254 28.1928 197.841 29.1359C199.53 30.0718 201.429 30.5628 203.361 30.5628C205.292 30.5628 207.191 30.0718 208.88 29.1359C210.467 28.1928 211.765 26.8332 212.634 25.2045C213.559 23.472 214.028 21.5321 213.994 19.5682C214.032 17.6092 213.563 15.6737 212.634 13.9487V13.9487ZM210.457 24.0883C209.801 25.3642 208.809 26.4359 207.586 27.1868C206.65 27.768 205.604 28.1497 204.514 28.3081C203.423 28.4665 202.312 28.3981 201.249 28.1073C200.186 27.8164 199.195 27.3094 198.337 26.6178C197.479 25.9263 196.774 25.0652 196.264 24.0883C195.552 22.6896 195.196 21.1373 195.225 19.5682C195.191 18.0058 195.548 16.4596 196.264 15.0704C196.923 13.8138 197.919 12.7657 199.14 12.044C200.432 11.3264 201.886 10.9498 203.363 10.9498C204.841 10.9498 206.294 11.3264 207.586 12.044C208.806 12.7661 209.8 13.8142 210.457 15.0704C211.173 16.4596 211.53 18.0058 211.496 19.5682C211.525 21.1373 211.169 22.6896 210.457 24.0883V24.0883Z" fill="#98A2A0"/>
<path d="M232.547 8.97266L225.989 28.7411H226.389L219.653 8.97266H217.093L224.612 30.2015H227.771L235.107 8.97266H232.547Z" fill="#98A2A0"/>
<path d="M257.313 29.7402C257.154 29.4496 257.027 29.1423 256.935 28.824C256.847 28.4591 256.787 28.0877 256.758 27.7134C256.714 27.2817 256.694 26.8479 256.696 26.414V15.3915C256.737 14.0673 256.317 12.7699 255.508 11.721C254.661 10.6905 253.552 9.90616 252.298 9.44985C249.237 8.3804 245.898 8.41379 242.859 9.54426C241.551 10.0485 240.418 10.9226 239.599 12.0597C238.807 13.2213 238.401 14.6026 238.438 16.0079H240.887C240.844 15.2734 240.987 14.54 241.304 13.8759C241.62 13.2118 242.1 12.6386 242.697 12.2097C243.901 11.3582 245.583 10.9325 247.745 10.9325C249.811 10.9325 251.403 11.3027 252.521 12.0431C253.052 12.3862 253.484 12.8614 253.776 13.4221C254.068 13.9828 254.21 14.6098 254.186 15.2416V15.5192C254.186 16.1633 253.598 16.6298 252.415 16.913C250.492 17.3091 248.547 17.5928 246.59 17.7626C245.027 17.8902 243.49 18.2321 242.02 18.7788C240.857 19.197 239.831 19.927 239.055 20.8889C238.336 21.8621 237.968 23.0503 238.011 24.2595C237.976 25.4705 238.324 26.6616 239.005 27.6634C239.699 28.6374 240.664 29.385 241.781 29.8124C243.139 30.3336 244.586 30.5863 246.04 30.5565C247.318 30.5714 248.592 30.4031 249.822 30.0568C250.867 29.7649 251.854 29.2932 252.737 28.663C253.307 28.2589 253.807 27.7658 254.22 27.2026C254.22 27.4191 254.22 27.6135 254.259 27.7967C254.292 28.1735 254.364 28.5458 254.475 28.9073C254.582 29.1908 254.702 29.4688 254.836 29.7402C254.905 29.8931 254.993 30.0368 255.097 30.1678H257.596C257.487 30.0353 257.392 29.8921 257.313 29.7402V29.7402ZM254.214 22.3882C254.246 23.5505 253.879 24.6887 253.176 25.6144C252.447 26.5278 251.489 27.2311 250.399 27.6523C249.162 28.1376 247.842 28.379 246.512 28.3631C244.554 28.3631 243.073 28.004 242.07 27.2859C241.579 26.933 241.184 26.4623 240.922 25.917C240.66 25.3717 240.539 24.7693 240.571 24.1651C240.531 23.5446 240.672 22.926 240.975 22.3833C241.278 21.8406 241.732 21.3969 242.281 21.1054C243.419 20.478 245.091 20.0615 247.279 19.8449C248.837 19.7006 250.283 19.5155 251.615 19.2896C252.51 19.1462 253.388 18.9137 254.236 18.5955L254.214 22.3882Z" fill="#98A2A0"/>
<path d="M271.167 30.424C271.489 30.376 271.805 30.2961 272.111 30.1853V28.0252C271.845 28.1242 271.57 28.1967 271.289 28.2417C270.923 28.3092 270.551 28.3427 270.179 28.3417C269.781 28.3865 269.379 28.3141 269.022 28.1336C268.665 27.9531 268.368 27.6722 268.169 27.3255C267.774 26.4396 267.593 25.4733 267.641 24.5046V11.1776H274.438V8.9731H267.652V2.11523H265.17V7.29611C265.17 7.69592 265.17 8.00689 265.142 8.23456C265.139 8.41334 265.083 8.58716 264.981 8.73432C264.869 8.8522 264.716 8.92355 264.554 8.93422C264.281 8.96473 264.006 8.97771 263.732 8.9731H260.056V11.1498H265.17V25.4042C265.144 26.2663 265.274 27.126 265.553 27.9419C265.761 28.5478 266.123 29.0893 266.603 29.5134C267.041 29.8894 267.559 30.1593 268.119 30.3019C268.69 30.4515 269.278 30.5262 269.868 30.524C270.303 30.5264 270.738 30.493 271.167 30.424" fill="#98A2A0"/>
<path d="M281.884 3.16465C282.06 3.01822 282.202 2.83486 282.299 2.62757C282.396 2.42029 282.447 2.19416 282.447 1.96522C282.447 1.73629 282.396 1.51016 282.299 1.30287C282.202 1.09559 282.06 0.912223 281.884 0.76579C281.51 0.465785 281.042 0.306614 280.563 0.316004C280.078 0.304583 279.604 0.463764 279.225 0.76579C279.049 0.912223 278.907 1.09559 278.81 1.30287C278.713 1.51016 278.662 1.73629 278.662 1.96522C278.662 2.19416 278.713 2.42029 278.81 2.62757C278.907 2.83486 279.049 3.01822 279.225 3.16465C279.604 3.46668 280.078 3.62586 280.563 3.61444C281.042 3.62383 281.51 3.46466 281.884 3.16465Z" fill="#98A2A0"/>
<path d="M281.762 8.97266H279.325V30.2015H281.762V8.97266Z" fill="#98A2A0"/>
<path d="M307.711 13.9487C306.836 12.3431 305.535 11.0097 303.952 10.095C302.258 9.17642 300.362 8.69531 298.435 8.69531C296.508 8.69531 294.612 9.17642 292.918 10.095C291.335 11.0097 290.034 12.3431 289.159 13.9487C288.232 15.6747 287.764 17.6095 287.798 19.5683C287.768 21.5318 288.236 23.471 289.159 25.2045C290.029 26.8336 291.33 28.1932 292.918 29.1359C294.606 30.0718 296.505 30.5629 298.435 30.5629C300.365 30.5629 302.264 30.0718 303.952 29.1359C305.54 28.1932 306.84 26.8336 307.711 25.2045C308.634 23.471 309.102 21.5318 309.072 19.5683C309.106 17.6095 308.638 15.6747 307.711 13.9487V13.9487ZM305.534 24.0883C304.879 25.3642 303.886 26.4359 302.663 27.1869C301.376 27.9185 299.921 28.3032 298.441 28.3032C296.96 28.3032 295.505 27.9185 294.217 27.1869C292.991 26.4396 291.995 25.3671 291.341 24.0883C290.628 22.69 290.269 21.1378 290.297 19.5683C290.265 18.0054 290.623 16.4592 291.341 15.0704C291.996 13.8113 292.993 12.7625 294.217 12.044C295.509 11.3264 296.963 10.9498 298.441 10.9498C299.918 10.9498 301.372 11.3264 302.663 12.044C303.883 12.7661 304.878 13.8142 305.534 15.0704C306.247 16.4606 306.604 18.0061 306.573 19.5683C306.6 21.137 306.243 22.6887 305.534 24.0883V24.0883Z" fill="#98A2A0"/>
<path d="M332.638 16.3477V30.2023H330.178V16.9474C330.204 15.8788 329.99 14.818 329.551 13.8433C329.141 12.9658 328.467 12.2379 327.624 11.761C326.597 11.2259 325.449 10.9676 324.292 11.0113C323.109 11.0095 321.945 11.3157 320.916 11.8998C319.879 12.478 319.002 13.3064 318.367 14.3098C317.719 15.3319 317.381 16.5202 317.395 17.7304V30.2023H314.908V8.97342H317.384V12.4718C318.178 11.3605 319.215 10.4451 320.416 9.79526C321.733 9.0595 323.217 8.6769 324.725 8.68467C326.177 8.65042 327.616 8.9626 328.923 9.59535C330.089 10.1703 331.056 11.0812 331.7 12.2108C332.364 13.4857 332.688 14.9109 332.638 16.3477Z" fill="#98A2A0"/>
</svg>
