<svg width="217" height="54" viewBox="0 0 217 54" fill="none" xmlns="http://www.w3.org/2000/svg">
<path d="M216.271 46.127C215.9 45.8058 215.999 45.361 215.9 44.9657C215.894 44.7797 215.841 44.5983 215.745 44.4385C215.65 44.2786 215.516 44.1454 215.355 44.0514L215.454 43.965C215.678 43.8387 215.852 43.6405 215.949 43.4028C216.046 43.165 216.059 42.9016 215.986 42.6554C215.89 42.4112 215.717 42.2041 215.495 42.0642C215.272 41.9242 215.011 41.8587 214.748 41.8771H213.015C212.78 41.8771 212.718 41.8771 212.718 42.1612C212.718 43.3967 212.718 44.7433 212.718 46.0282C212.718 46.2505 212.718 46.3123 213.003 46.3247C213.287 46.337 213.473 46.3247 213.424 45.9293C213.411 45.6947 213.411 45.4597 213.424 45.2251C213.424 44.3232 213.424 44.3232 214.315 44.3356C214.5 44.3068 214.689 44.3514 214.842 44.4599C214.995 44.5684 215.099 44.7322 215.132 44.9163C215.2 45.1955 215.238 45.4813 215.244 45.7687C215.245 45.8525 215.263 45.9352 215.297 46.0118C215.331 46.0885 215.38 46.1576 215.441 46.2152C215.503 46.2727 215.575 46.3175 215.653 46.3469C215.732 46.3763 215.816 46.3897 215.9 46.3864C215.969 46.3992 216.041 46.3992 216.11 46.3864C216.259 46.2505 216.383 46.127 216.271 46.127ZM214.724 43.7549C214.526 43.7673 214.327 43.7673 214.129 43.7549C213.461 43.7549 213.461 43.7549 213.461 43.0754C213.461 42.3959 213.461 42.4454 214.117 42.4454H214.699C214.871 42.442 215.037 42.5061 215.162 42.624C215.287 42.7418 215.361 42.9039 215.367 43.0754C215.367 43.2482 215.3 43.4142 215.18 43.5387C215.06 43.6631 214.897 43.7362 214.724 43.7426V43.7549Z" fill="#C6CDCB"/>
<path d="M216.271 46.127C215.9 45.8058 215.999 45.361 215.9 44.9657C215.894 44.7797 215.841 44.5983 215.745 44.4385C215.65 44.2786 215.516 44.1454 215.355 44.0514L215.454 43.965C215.678 43.8387 215.852 43.6405 215.949 43.4028C216.046 43.165 216.059 42.9016 215.986 42.6554C215.89 42.4112 215.717 42.2041 215.495 42.0642C215.272 41.9242 215.011 41.8587 214.748 41.8771H213.015C212.78 41.8771 212.718 41.8771 212.718 42.1612C212.718 43.3967 212.718 44.7433 212.718 46.0282C212.718 46.2505 212.718 46.3123 213.003 46.3247C213.287 46.337 213.473 46.3247 213.424 45.9293C213.411 45.6947 213.411 45.4597 213.424 45.2251C213.424 44.3232 213.424 44.3232 214.315 44.3356C214.5 44.3068 214.689 44.3514 214.842 44.4599C214.995 44.5684 215.099 44.7322 215.132 44.9163C215.2 45.1955 215.238 45.4813 215.244 45.7687C215.245 45.8525 215.263 45.9352 215.297 46.0118C215.331 46.0885 215.38 46.1576 215.441 46.2152C215.503 46.2727 215.575 46.3175 215.653 46.3469C215.732 46.3763 215.816 46.3897 215.9 46.3864C215.969 46.3992 216.041 46.3992 216.11 46.3864C216.259 46.2505 216.383 46.127 216.271 46.127ZM214.724 43.7549C214.526 43.7673 214.327 43.7673 214.129 43.7549C213.461 43.7549 213.461 43.7549 213.461 43.0754C213.461 42.3959 213.461 42.4454 214.117 42.4454H214.699C214.871 42.442 215.037 42.5061 215.162 42.624C215.287 42.7418 215.361 42.9039 215.367 43.0754C215.367 43.2482 215.3 43.4142 215.18 43.5387C215.06 43.6631 214.897 43.7362 214.724 43.7426V43.7549Z" fill="#FEFEFE"/>
<path d="M73.4157 0.688283C72.8338 1.82489 72.1776 2.89973 71.5338 3.99928L67.8197 10.436C67.2764 11.4664 66.458 12.3269 65.4551 12.9221C64.4522 13.5173 63.3039 13.8242 62.1371 13.8087C58.3364 13.8087 54.5356 13.8087 50.7348 13.8087H36.8564C35.4074 13.7882 33.9794 14.1556 32.7209 14.8726C31.4624 15.5896 30.4194 16.6301 29.7005 17.8857C25.4664 25.2078 21.2489 32.5257 17.0478 39.8396C17.0478 39.9137 16.9735 40.0002 16.8992 40.1361H18.3972C18.583 40.1361 18.6077 40.0002 18.6696 39.889C21.2612 35.4167 23.8446 30.9444 26.4197 26.472C27.9425 23.8529 29.4282 21.209 30.9757 18.6146C31.5356 17.5917 32.3663 16.742 33.3772 16.1581C34.388 15.5742 35.5401 15.2786 36.7078 15.3036H48.1102C47.553 16.2796 47.0207 17.2062 46.476 18.1328C42.3492 25.2737 38.2224 32.4145 34.0956 39.5554C33.5898 40.5049 32.8599 41.3171 31.9691 41.922C31.0782 42.5268 30.0531 42.9061 28.9825 43.027C28.8135 43.0396 28.6438 43.0396 28.4749 43.027H0V42.9529C0.23485 42.3504 0.533682 41.7747 0.891387 41.2356L6.99491 30.6726L12.0833 21.8762C14.0641 18.4581 16.0408 15.0401 18.0135 11.622C18.9667 9.97884 19.8458 8.28628 20.8981 6.6802C22.5813 4.18767 25.0392 2.31665 27.893 1.35542C28.9793 0.959915 30.1182 0.72678 31.2728 0.663574H31.4338C31.5845 0.725358 31.7535 0.725358 31.9042 0.663574L73.4157 0.688283Z" fill="#C6CDCB"/>
<path d="M90.2902 0.687988C90.2902 0.811533 90.2902 0.88566 90.1788 0.972141L84.7562 10.3986C84.188 11.4696 83.3295 12.3595 82.2787 12.9668C81.2279 13.5741 80.0272 13.8743 78.8136 13.8331H70.6549C68.7135 13.7968 66.8238 14.459 65.3313 15.6987C64.3951 16.5364 63.619 17.5369 63.041 18.6514L50.8958 39.654C50.3308 40.7141 49.4789 41.5946 48.4371 42.1952C47.3952 42.7959 46.2053 43.0926 45.0028 43.0514H33.749L35.2346 40.4941C39.444 33.1802 43.6781 25.8664 47.9369 18.5649C48.482 17.553 49.2992 16.7129 50.2964 16.1389C51.2937 15.5649 52.4317 15.2798 53.5824 15.3157C56.2689 15.3157 58.9678 15.3157 61.6544 15.3157C63.1908 15.3661 64.7102 14.9823 66.0376 14.2085C67.3649 13.4347 68.4462 12.3025 69.1569 10.9422L73.1062 4.12253C73.6012 3.20722 74.3095 2.42412 75.1714 1.83927C76.0332 1.25442 77.0234 0.884983 78.0584 0.762115C78.0584 0.762115 78.1203 0.762115 78.145 0.687988H90.2902Z" fill="#98A2A0"/>
<path d="M216.062 22.0369C215.644 22.6126 215.272 23.2198 214.948 23.853C214.379 24.8043 213.834 25.7556 213.289 26.7193C213.098 27.1082 212.797 27.4327 212.423 27.6523C212.049 27.872 211.618 27.9771 211.184 27.9547C209.773 27.9547 208.362 27.9547 206.95 27.9547C206.816 27.9416 206.681 27.9716 206.565 28.0406C206.45 28.1095 206.359 28.2136 206.307 28.3377C203.707 32.8594 201.103 37.3894 198.495 41.9276C198.299 42.3126 197.996 42.6335 197.623 42.8525C197.25 43.0714 196.822 43.1792 196.39 43.163H188.702C188.949 42.7183 189.185 42.3353 189.407 41.9276L197.219 28.3377C197.455 27.9423 197.455 27.9423 196.997 27.9423H191.401L192.837 25.4715C193.295 24.6684 193.753 23.8777 194.223 23.087C194.416 22.7195 194.708 22.414 195.068 22.2062C195.427 21.9984 195.839 21.8968 196.254 21.9134C202.857 21.9134 209.459 21.9134 216.062 21.9134V22.0369Z" fill="#C6CDCB"/>
<path d="M120.82 21.9009H102.992C102.662 21.8994 102.333 21.9409 102.014 22.0245C101.158 22.243 100.357 22.6356 99.6604 23.1778C98.9637 23.7199 98.3868 24.3998 97.9658 25.1749L88.2101 42.0387L87.6282 43.0518H88.1235C90.4757 43.0518 92.828 43.0518 95.1679 43.0518C95.649 43.0827 96.1282 42.9684 96.5433 42.7238C96.9584 42.4792 97.2902 42.1157 97.4954 41.6804C98.5849 39.7531 99.7115 37.8505 100.813 35.9232C100.96 35.6347 101.176 35.3868 101.441 35.2014C101.707 35.0161 102.014 34.899 102.336 34.8608C103.054 34.8233 103.773 34.8233 104.49 34.8608L99.7734 43.0641C102.324 43.0641 104.8 43.0641 107.288 43.0641C107.761 43.0948 108.233 42.9844 108.643 42.7467C109.053 42.5091 109.383 42.1552 109.591 41.7298C112.81 36.1621 116.033 30.5902 119.26 25.0142L121.055 21.9009H120.82ZM106.781 30.8703C106.595 31.1682 106.336 31.4134 106.028 31.5822C105.72 31.751 105.374 31.8377 105.023 31.8339H103.215C103.599 31.1544 103.946 30.5243 104.305 29.9066C104.911 28.8688 105.543 27.8311 106.112 26.7809C106.301 26.3929 106.6 26.0689 106.972 25.8492C107.344 25.6296 107.773 25.5239 108.204 25.5455C108.737 25.5455 109.269 25.5455 109.863 25.5455C108.774 27.3863 107.808 29.1406 106.781 30.8703Z" fill="#C6CDCB"/>
<path d="M192.837 21.8765C192.49 22.4818 192.168 23.0254 191.859 23.5814L181.732 41.1247C181.417 41.7376 180.932 42.2467 180.335 42.5908C179.737 42.935 179.053 43.0994 178.364 43.0644H171.518L181.633 25.5581C180.86 25.5232 180.087 25.5438 179.317 25.6199C179.02 25.6879 178.742 25.8206 178.502 26.0085C178.262 26.1965 178.067 26.435 177.931 26.7071C176.111 29.8574 174.303 32.9955 172.471 36.1459C171.373 38.0567 170.263 39.9716 169.141 41.8907C168.951 42.2602 168.659 42.5674 168.299 42.7756C167.938 42.9837 167.526 43.084 167.11 43.0644H159.435C159.546 42.7701 159.696 42.4917 159.88 42.2366L170.503 23.8408C170.817 23.2296 171.299 22.721 171.894 22.3751C172.489 22.0291 173.17 21.8604 173.858 21.8888H192.837V21.8765Z" fill="#C6CDCB"/>
<path d="M151.697 30.0917H163.768C163.706 30.2997 163.61 30.496 163.483 30.6724L161.725 33.6992C161.537 34.057 161.251 34.3538 160.9 34.5551C160.549 34.7564 160.148 34.8538 159.744 34.8359H150.323C149.912 34.8164 149.504 34.9141 149.146 35.1176C148.789 35.3211 148.497 35.6219 148.305 35.9848C147.983 36.5531 147.661 37.1214 147.314 37.6774C147.166 37.9245 147.228 37.9862 147.5 37.9739C151.288 37.8998 155.077 37.9739 158.865 37.9739H159.311C158.543 39.2093 157.875 40.5436 157.07 41.6802C156.777 42.1227 156.375 42.4824 155.902 42.7248C155.429 42.9671 154.902 43.0839 154.371 43.0639H135.12L136.432 40.7907L146.237 23.8404C146.552 23.2348 147.035 22.7317 147.627 22.3902C148.219 22.0488 148.897 21.8833 149.58 21.9131H168.571L167.928 23.025L166.293 25.8542C166.111 26.2392 165.818 26.5619 165.453 26.7817C165.087 27.0015 164.665 27.1086 164.238 27.0896H155.002C154.535 27.0551 154.068 27.1615 153.662 27.395C153.256 27.6285 152.929 27.9783 152.724 28.3992C152.415 28.9057 152.105 29.4617 151.697 30.0917Z" fill="#C6CDCB"/>
<path d="M133.213 21.8882L122.714 40.0492C123.46 40.1046 124.209 40.1046 124.955 40.0492C125.252 39.9947 125.533 39.8742 125.778 39.6967C126.022 39.5192 126.223 39.2893 126.366 39.0238C126.961 38.0108 127.53 36.9977 128.124 35.9846C128.294 35.6616 128.548 35.3908 128.86 35.2014C129.172 35.0119 129.53 34.9111 129.895 34.9098C132.519 34.9098 135.144 34.9098 137.818 34.9098L136.58 37.0718C135.776 38.4555 134.971 39.8392 134.178 41.2229C133.87 41.8223 133.396 42.321 132.812 42.6603C132.229 42.9996 131.56 43.1653 130.885 43.1379H111.869C112.327 42.3225 112.76 41.5688 113.206 40.8152L122.949 23.9514C123.274 23.3241 123.772 22.8024 124.384 22.4479C124.996 22.0933 125.697 21.9206 126.404 21.95L133.213 21.8882Z" fill="#C6CDCB"/>
<path d="M70.3949 43.0518L79.0612 27.9793C78.925 27.8558 78.7764 27.9175 78.6402 27.9175H73.5519C73.1062 27.9175 73.1062 27.9176 73.3167 27.5469L75.9537 22.9758C76.1331 22.6371 76.4024 22.3543 76.7321 22.1582C77.0619 21.9621 77.4393 21.8602 77.8231 21.8639H97.7555C97.4708 22.358 97.2108 22.8275 96.9384 23.2846C96.2947 24.3965 95.7004 25.5084 95.0195 26.6203C94.8133 27.0214 94.4929 27.3526 94.0986 27.5724C93.7043 27.7923 93.2537 27.8908 92.8034 27.8558C91.4044 27.8558 90.0054 27.8558 88.6064 27.8558C88.4837 27.8448 88.3605 27.8722 88.254 27.9342C88.1476 27.9962 88.0631 28.0897 88.0122 28.2017L80.163 41.7916C79.9653 42.1806 79.6591 42.5041 79.2813 42.7233C78.9034 42.9426 78.4701 43.048 78.0336 43.0271L70.3949 43.0518Z" fill="#C6CDCB"/>
<path d="M170.007 52.5773C170.515 51.3418 171.023 50.1064 171.505 48.8709C171.529 48.7585 171.595 48.6591 171.689 48.5927C171.783 48.5263 171.899 48.4977 172.013 48.5127C172.818 48.5127 172.818 48.5127 172.818 49.3404C172.818 50.6747 172.818 51.9966 172.818 53.3309C172.818 53.6645 172.681 53.6645 172.434 53.6768C172.186 53.6892 172.087 53.6027 172.087 53.3309C172.087 52.0955 172.087 50.7365 172.013 49.4145L171.221 51.3048C170.936 51.9966 170.626 52.7008 170.354 53.405C170.333 53.4904 170.281 53.5647 170.207 53.6129C170.134 53.661 170.044 53.6795 169.958 53.6645C169.863 53.6808 169.766 53.6623 169.684 53.6123C169.602 53.5623 169.541 53.4842 169.512 53.3927C169.005 52.1572 168.485 50.9218 167.977 49.6863C167.949 49.5967 167.892 49.5187 167.816 49.464V53.2815C167.816 53.6768 167.655 53.7757 167.259 53.6892C167.098 53.6892 167.123 53.5533 167.123 53.4545V48.8215C167.104 48.7611 167.104 48.6966 167.123 48.6362C167.271 48.4509 168.286 48.6362 168.361 48.8462C168.819 49.9705 169.277 51.0947 169.747 52.219C169.792 52.3636 169.884 52.4895 170.007 52.5773V52.5773Z" fill="#C6CDCB"/>
<path d="M155.547 53.491C155.188 53.2687 155.225 52.9227 155.225 52.5892C155.256 52.2837 155.193 51.9762 155.045 51.7072C154.897 51.4381 154.67 51.2202 154.396 51.0819L154.544 51.0078C154.811 50.8748 155.027 50.6606 155.163 50.3961C155.299 50.1317 155.347 49.831 155.299 49.5376C155.232 49.2635 155.072 49.0208 154.847 48.85C154.621 48.6791 154.344 48.5904 154.061 48.5987C153.281 48.5987 152.502 48.5987 151.722 48.5987C151.561 48.5987 151.499 48.5987 151.499 48.821V53.5157C151.499 53.874 151.771 53.7011 151.932 53.7258C152.093 53.7505 152.279 53.7258 152.266 53.5034C152.254 53.281 152.266 52.7621 152.266 52.3915C152.266 52.0209 152.167 51.6996 152.266 51.5143C152.365 51.329 152.861 51.4525 153.17 51.4525C154.012 51.4525 154.408 51.7985 154.408 52.688C154.397 52.9228 154.431 53.1574 154.507 53.3798C154.576 53.5447 154.705 53.6773 154.868 53.7507C155.032 53.8241 155.217 53.8328 155.386 53.7752C155.609 53.6887 155.683 53.5775 155.547 53.491ZM153.876 50.7731C153.406 50.8039 152.934 50.8039 152.464 50.7731C152.291 50.7731 152.279 50.6742 152.279 50.5383C152.279 50.1677 152.279 49.8094 152.279 49.4388C152.279 49.2782 152.279 49.204 152.502 49.2164H153.74C153.931 49.2027 154.121 49.2651 154.267 49.39C154.413 49.5149 154.504 49.6923 154.52 49.8835V49.8835C154.537 49.9793 154.536 50.0776 154.516 50.1728C154.496 50.2681 154.457 50.3585 154.402 50.4388C154.347 50.5191 154.276 50.5878 154.194 50.6409C154.113 50.694 154.021 50.7305 153.925 50.7483L153.876 50.7731Z" fill="#C6CDCB"/>
<path d="M141.458 53.4913C141.112 53.2566 141.136 52.923 141.136 52.5771C141.163 52.2739 141.098 51.9697 140.95 51.7035C140.802 51.4373 140.578 51.221 140.307 51.0822C140.618 50.9657 140.879 50.7432 141.042 50.4538C141.205 50.1645 141.26 49.827 141.198 49.5008C141.105 49.2019 140.907 48.9459 140.642 48.7784C140.377 48.611 140.061 48.543 139.75 48.5866H137.732C137.534 48.5866 137.422 48.5866 137.422 48.8584C137.422 50.3903 137.422 51.9346 137.422 53.479C137.422 53.7878 137.608 53.7384 137.781 53.726C137.955 53.7137 138.215 53.8496 138.202 53.4913C138.19 53.133 138.202 52.8365 138.202 52.503C138.202 52.1694 138.078 51.6999 138.202 51.5146C138.326 51.3293 138.871 51.4528 139.217 51.4405C139.34 51.4212 139.466 51.4264 139.586 51.4558C139.707 51.4852 139.821 51.5381 139.921 51.6117C140.021 51.6852 140.106 51.7778 140.17 51.8841C140.234 51.9905 140.276 52.1084 140.294 52.2312C140.294 52.2312 140.294 52.33 140.294 52.3794C140.294 52.6512 140.294 52.9354 140.369 53.2072C140.405 53.3889 140.51 53.5497 140.663 53.6557C140.815 53.7616 141.002 53.8046 141.186 53.7755H141.31C141.52 53.689 141.594 53.5778 141.458 53.4913ZM139.911 50.7733C139.388 50.8288 138.861 50.8288 138.338 50.7733C138.215 50.7733 138.19 50.6992 138.19 50.6004V50.1185C138.19 49.2167 138.19 49.2167 139.106 49.2043H139.725C139.91 49.2039 140.089 49.2739 140.225 49.4C140.36 49.5262 140.443 49.6992 140.455 49.8838C140.497 50.0736 140.464 50.272 140.362 50.4377C140.261 50.6035 140.099 50.7237 139.911 50.7733Z" fill="#C6CDCB"/>
<path d="M181.818 53.4912C181.679 53.3798 181.574 53.2315 181.514 53.0633C181.455 52.8952 181.445 52.7138 181.484 52.5399C181.507 52.2436 181.442 51.9471 181.296 51.6877C181.151 51.4283 180.932 51.2176 180.667 51.0821C180.983 50.9648 181.245 50.7378 181.407 50.4428C181.568 50.1477 181.618 49.8044 181.546 49.476C181.441 49.1834 181.239 48.9355 180.973 48.7736C180.707 48.6118 180.394 48.5457 180.085 48.5864C179.416 48.5864 178.76 48.5864 178.104 48.5864C177.881 48.5864 177.819 48.6482 177.819 48.8706C177.819 50.4026 177.819 51.9345 177.819 53.4541C177.819 53.7877 177.993 53.7259 178.191 53.7383C178.389 53.7506 178.562 53.7383 178.55 53.4418C178.55 52.8734 178.55 52.2928 178.55 51.7121C178.55 51.5145 178.55 51.428 178.81 51.4403H179.763C179.949 51.4241 180.135 51.47 180.292 51.5706C180.448 51.6712 180.567 51.8209 180.63 51.9963C180.748 52.3161 180.798 52.6568 180.778 52.997C180.772 53.0928 180.784 53.1889 180.814 53.2799C180.845 53.3709 180.893 53.455 180.957 53.5273C181.02 53.5997 181.097 53.6588 181.183 53.7014C181.269 53.7439 181.363 53.7691 181.459 53.7753C181.548 53.7995 181.642 53.7995 181.732 53.7753C181.818 53.6888 181.917 53.5777 181.818 53.4912ZM180.271 50.7732C179.736 50.8349 179.196 50.8349 178.661 50.7732C178.488 50.7732 178.525 50.6496 178.525 50.5385C178.525 50.1925 178.525 49.8343 178.525 49.476C178.525 49.1177 178.525 49.1918 178.785 49.2165H180.097C180.283 49.222 180.46 49.2956 180.595 49.4232C180.73 49.5509 180.813 49.7236 180.828 49.9084C180.844 50.0908 180.795 50.2731 180.692 50.424C180.588 50.575 180.435 50.6853 180.258 50.7361L180.271 50.7732Z" fill="#C6CDCB"/>
<path d="M149.964 50.39C149.946 50.1334 149.878 49.8828 149.764 49.6525C149.649 49.4222 149.49 49.2168 149.296 49.048C149.101 48.8793 148.875 48.7505 148.631 48.6692C148.386 48.5878 148.128 48.5554 147.871 48.5739H147.747C147.335 48.5976 146.922 48.5976 146.509 48.5739C146.188 48.5739 146.051 48.5739 146.076 48.9939C146.076 49.7105 146.076 50.4394 146.076 51.156V53.4416C146.076 53.6516 146.076 53.7257 146.336 53.7134C146.906 53.7134 147.475 53.7134 148.032 53.7134C148.451 53.71 148.858 53.5708 149.19 53.3168C149.523 53.0627 149.764 52.7076 149.877 52.3049C150.048 51.681 150.078 51.0268 149.964 50.39ZM149.134 52.1073C149.061 52.3768 148.9 52.6139 148.675 52.7799C148.45 52.9459 148.176 53.0311 147.896 53.0215H147.153C146.893 53.0215 146.844 52.9474 146.844 52.7126C146.844 52.169 146.844 51.6378 146.844 51.0942C146.844 50.5506 146.844 50.0194 146.844 49.4758C146.844 49.2781 146.844 49.1916 147.116 49.204C147.363 49.2287 147.612 49.2287 147.859 49.204C148.034 49.1888 148.21 49.2091 148.376 49.2636C148.543 49.3181 148.697 49.4057 148.829 49.5211C148.961 49.6365 149.068 49.7774 149.144 49.9352C149.219 50.093 149.263 50.2645 149.27 50.4394C149.276 50.4928 149.276 50.5467 149.27 50.6C149.332 51.1194 149.307 51.6455 149.196 52.1567L149.134 52.1073Z" fill="#C6CDCB"/>
<path d="M211.531 36.2075C211.027 36.1962 210.526 36.284 210.056 36.466C209.586 36.6479 209.156 36.9205 208.792 37.2681C208.428 37.6157 208.135 38.0316 207.932 38.4919C207.728 38.9522 207.618 39.448 207.607 39.9509C207.595 40.4539 207.683 40.9541 207.866 41.4231C208.048 41.8921 208.321 42.3207 208.669 42.6844C209.018 43.0481 209.434 43.3397 209.896 43.5427C210.357 43.7456 210.854 43.8559 211.358 43.8673V43.8673C212.376 43.8902 213.361 43.5087 214.097 42.8067C214.833 42.1047 215.259 41.1396 215.282 40.1239C215.305 39.1081 214.923 38.1249 214.22 37.3904C213.516 36.656 212.549 36.2305 211.531 36.2075V36.2075ZM211.531 43.4349C210.628 43.4349 209.762 43.0769 209.124 42.4398C208.485 41.8026 208.127 40.9385 208.127 40.0374C208.127 39.1363 208.485 38.2722 209.124 37.635C209.762 36.9979 210.628 36.6399 211.531 36.6399C212.406 36.6167 213.254 36.9404 213.89 37.5402C214.526 38.14 214.897 38.967 214.923 39.8397V40.025C214.932 40.473 214.85 40.9181 214.683 41.3339C214.515 41.7498 214.266 42.1279 213.95 42.4458C213.634 42.7638 213.256 43.0152 212.841 43.1851C212.426 43.355 211.98 43.4399 211.531 43.4349V43.4349Z" fill="#C6CDCB"/>
<path d="M130.365 50.3039C130.327 49.8439 130.127 49.4121 129.801 49.0846C129.475 48.757 129.043 48.5544 128.583 48.5125C128.08 48.4128 127.559 48.5064 127.122 48.7745C126.686 49.0426 126.367 49.4653 126.23 49.958C126.094 50.6164 126.069 51.2928 126.156 51.9594C126.185 52.3821 126.352 52.7837 126.632 53.1028C126.911 53.4218 127.288 53.6407 127.704 53.7261C128.145 53.8498 128.615 53.8262 129.042 53.659C129.469 53.4917 129.829 53.1899 130.068 52.7995C130.327 52.2788 130.442 51.699 130.403 51.1193C130.403 50.8475 130.39 50.5757 130.365 50.3039ZM129.573 52.1571C129.473 52.4603 129.271 52.7197 129.001 52.8911C128.731 53.0626 128.41 53.1356 128.092 53.0978C127.774 53.06 127.479 52.9137 127.258 52.6837C127.036 52.4537 126.9 52.1541 126.874 51.8359C126.874 51.6011 126.874 51.3664 126.874 51.1317C126.849 50.7881 126.874 50.4427 126.949 50.1062C127.04 49.8123 127.227 49.5574 127.481 49.3827C127.735 49.2079 128.04 49.1233 128.347 49.1426C128.669 49.163 128.972 49.2997 129.2 49.5271C129.428 49.7545 129.565 50.0571 129.586 50.378C129.703 50.9861 129.703 51.6108 129.586 52.2189L129.573 52.1571Z" fill="#C6CDCB"/>
<path d="M193.902 51.1315C193.902 50.4026 193.902 49.686 193.902 48.9571C193.902 48.6853 193.902 48.5741 194.261 48.5741C195.164 48.5741 196.08 48.5741 196.984 48.5741C197.096 48.5741 197.331 48.4753 197.281 48.7348C197.232 48.9942 197.356 49.2289 196.947 49.2166C196.291 49.2166 195.635 49.2166 194.966 49.2166C194.731 49.2166 194.632 49.2166 194.657 49.5254C194.681 49.8343 194.657 50.1555 194.657 50.4644C194.657 50.7732 194.743 50.7732 194.979 50.7732C195.511 50.7732 196.056 50.7732 196.6 50.7732C196.86 50.7732 196.997 50.7732 196.984 51.1315C196.972 51.4898 196.86 51.4527 196.613 51.4527H194.941C194.743 51.4527 194.632 51.4527 194.644 51.7245C194.663 52.0785 194.663 52.4331 194.644 52.787C194.644 52.997 194.644 53.0588 194.917 53.0588C195.598 53.0588 196.291 53.0588 196.972 53.0588C197.442 53.0588 197.269 53.4171 197.319 53.6148C197.368 53.8124 197.12 53.7383 197.009 53.7383C196.093 53.7383 195.164 53.7383 194.248 53.7383C193.926 53.7383 193.877 53.6271 193.889 53.343C193.914 52.6017 193.902 51.8604 193.902 51.1315Z" fill="#C6CDCB"/>
<path d="M185.532 48.9696C185.527 48.9079 185.527 48.8459 185.532 48.7843C185.458 48.5125 185.223 48.5866 185.05 48.5866C184.876 48.5866 184.629 48.5001 184.53 48.7843C184.332 49.3279 184.109 49.8591 183.911 50.3904L182.673 53.7137C183.366 53.7137 183.366 53.7137 183.601 53.1578C183.636 53.0732 183.665 52.9866 183.688 52.8983C183.697 52.8508 183.715 52.8055 183.742 52.7652C183.769 52.725 183.803 52.6905 183.844 52.664C183.884 52.6374 183.93 52.6193 183.977 52.6108C184.025 52.6022 184.074 52.6034 184.121 52.6142C184.653 52.6142 185.198 52.6142 185.731 52.6142C185.81 52.5959 185.893 52.5936 185.973 52.6074C186.054 52.6212 186.131 52.6508 186.2 52.6944C186.269 52.7381 186.329 52.7949 186.376 52.8617C186.423 52.9285 186.456 53.0039 186.473 53.0836C186.671 53.7261 186.709 53.7137 187.377 53.6766H187.489C186.771 52.1076 186.164 50.5386 185.532 48.9696ZM183.96 51.8976C184.27 51.0822 184.579 50.2915 184.926 49.4267C185.272 50.3286 185.582 51.1069 185.891 51.8976H183.96Z" fill="#C6CDCB"/>
<path d="M165.934 53.5284C165.34 51.9964 164.696 50.4645 164.152 48.9202C164.12 48.8127 164.053 48.7193 163.96 48.6562C163.867 48.5931 163.756 48.5641 163.644 48.5743C163.297 48.5743 163.099 48.636 163.025 48.9943C162.975 49.1413 162.917 49.2856 162.852 49.4267L161.18 53.7014C161.874 53.7755 161.874 53.7755 162.109 53.1578C162.147 53.0747 162.176 52.9877 162.195 52.8983C162.203 52.8513 162.22 52.8062 162.245 52.766C162.271 52.7258 162.304 52.6913 162.344 52.6646C162.383 52.6379 162.428 52.6197 162.475 52.611C162.522 52.6023 162.57 52.6034 162.616 52.6142C163.16 52.6512 163.706 52.6512 164.251 52.6142C164.329 52.5961 164.411 52.5939 164.491 52.6078C164.571 52.6217 164.647 52.6514 164.715 52.6952C164.783 52.7389 164.842 52.7959 164.887 52.8626C164.933 52.9293 164.965 53.0044 164.981 53.0836C165.179 53.7384 165.216 53.7384 165.922 53.689C166.009 53.6396 165.959 53.5902 165.934 53.5284ZM164.312 51.91H162.579C162.901 51.0946 163.198 50.3039 163.557 49.4391C163.879 50.2792 164.164 51.0204 164.461 51.7493C164.486 51.8976 164.486 51.91 164.312 51.91V51.91Z" fill="#C6CDCB"/>
<path d="M156.971 51.1439C156.971 50.3903 156.971 49.6367 156.971 48.8954C156.971 48.6606 156.971 48.5742 157.268 48.5742C158.209 48.5742 159.137 48.5742 160.078 48.5742C160.177 48.5742 160.413 48.4877 160.338 48.7101C160.264 48.9325 160.462 49.229 160.041 49.2166C159.397 49.2166 158.803 49.2166 158.11 49.2166C157.813 49.2166 157.652 49.2166 157.701 49.5996C157.751 49.9826 157.54 50.4644 157.788 50.6991C158.036 50.9339 158.494 50.6991 158.853 50.7609H159.806C160.128 50.7609 160.029 50.9833 160.041 51.1439C160.054 51.3045 160.041 51.4404 159.794 51.4404C159.199 51.4404 158.556 51.4404 158.011 51.4404C157.788 51.4404 157.677 51.4404 157.701 51.7369C157.726 52.0334 157.701 52.4041 157.701 52.7253C157.701 53.0465 157.701 53.0465 157.998 53.0465C158.667 53.0465 159.323 53.0465 159.979 53.0465C160.363 53.0465 160.351 53.2442 160.388 53.5036C160.425 53.763 160.177 53.7383 160.029 53.7383H157.256C157.033 53.7383 156.971 53.6642 156.971 53.4418C156.983 52.6635 156.971 51.9099 156.971 51.1439Z" fill="#C6CDCB"/>
<path d="M189.048 51.1682C188.998 51.586 189.049 52.0096 189.197 52.4037C189.313 52.6557 189.506 52.8645 189.749 52.9999C189.991 53.1353 190.271 53.1904 190.546 53.1573C190.826 53.1526 191.094 53.0455 191.299 52.8564C191.505 52.6673 191.633 52.4094 191.661 52.1319C191.723 51.7612 191.908 51.7489 192.193 51.7612C192.478 51.7736 192.428 51.8354 192.416 52.0207C192.392 52.486 192.197 52.9263 191.868 53.2569C191.539 53.5876 191.099 53.7853 190.633 53.8121C190.118 53.8982 189.589 53.7778 189.163 53.477C188.736 53.1762 188.446 52.7194 188.355 52.206C188.361 52.1816 188.361 52.1562 188.355 52.1319C188.206 51.3777 188.236 50.5993 188.442 49.8586C188.594 49.3706 188.928 48.9591 189.374 48.7087C189.821 48.4583 190.347 48.3879 190.844 48.512C191.273 48.5681 191.667 48.7761 191.956 49.098C192.245 49.4199 192.408 49.8345 192.416 50.2663C192.416 50.4146 192.416 50.5999 192.243 50.5505C192.069 50.5011 191.747 50.7605 191.673 50.3528C191.673 50.0252 191.543 49.7109 191.31 49.4792C191.078 49.2475 190.763 49.1174 190.435 49.1174H190.274C189.934 49.1455 189.617 49.3014 189.387 49.5536C189.157 49.8058 189.032 50.1355 189.036 50.4764C189.036 50.7729 189.048 50.9458 189.048 51.1682Z" fill="#C6CDCB"/>
<path d="M131.863 50.5633C131.863 49.995 131.863 49.4267 131.863 48.8584C131.863 48.5248 132.037 48.5866 132.235 48.5866C132.433 48.5866 132.606 48.5866 132.594 48.8707C132.594 49.9208 132.594 50.9833 132.594 52.0335C132.587 52.321 132.694 52.5997 132.89 52.8098C133.087 53.02 133.358 53.1449 133.646 53.1577C133.918 53.206 134.198 53.1483 134.428 52.9966C134.659 52.8449 134.822 52.6107 134.884 52.3423C134.897 52.2356 134.897 52.1278 134.884 52.0211C134.884 50.9833 134.884 49.9456 134.884 48.8954C134.884 48.5866 135.02 48.5866 135.256 48.5742C135.491 48.5619 135.627 48.5742 135.627 48.9078C135.627 49.9579 135.627 51.008 135.627 52.0705C135.637 52.5174 135.47 52.95 135.161 53.2741C134.853 53.5981 134.428 53.7872 133.981 53.8002V53.8002C133.53 53.9085 133.054 53.8409 132.652 53.6113C132.249 53.3817 131.949 53.0073 131.814 52.5647C131.796 52.4377 131.796 52.3087 131.814 52.1817C131.863 51.6134 131.863 51.0822 131.863 50.5633Z" fill="#C6CDCB"/>
<path d="M125.252 48.6359C124.93 49.1918 124.646 49.7848 124.274 50.3161C123.627 51.18 123.339 52.2598 123.47 53.3306C123.47 53.6888 123.172 53.8742 122.838 53.7259C122.814 53.7184 122.793 53.7037 122.777 53.6838C122.762 53.664 122.753 53.6398 122.752 53.6147V53.4912C122.827 52.8312 122.768 52.1628 122.579 51.526C122.39 50.8892 122.074 50.297 121.65 49.7848C121.402 49.3895 121.179 48.9694 120.944 48.5494C121.724 48.4629 121.724 48.4629 122.071 49.0683L123.123 50.8967C123.335 50.6355 123.514 50.3492 123.655 50.0443C123.862 49.7272 124.048 49.3971 124.212 49.0559C124.235 48.961 124.277 48.8717 124.336 48.7933C124.394 48.7149 124.467 48.6489 124.552 48.5994C124.636 48.5498 124.729 48.5177 124.826 48.5049C124.923 48.492 125.022 48.4988 125.116 48.5247L125.252 48.6359Z" fill="#C6CDCB"/>
<path d="M213.413 42.1255C213.042 41.8043 213.141 41.3595 213.042 40.9642C213.036 40.7783 212.983 40.5969 212.887 40.437C212.792 40.2771 212.658 40.1439 212.497 40.05L212.596 39.9635C212.82 39.8372 212.994 39.6391 213.091 39.4013C213.187 39.1635 213.201 38.9001 213.128 38.6539C213.031 38.4097 212.859 38.2027 212.637 38.0627C212.414 37.9228 212.153 37.8572 211.89 37.8756H210.157C209.922 37.8756 209.86 37.8756 209.86 38.1597C209.86 39.3952 209.86 40.7418 209.86 42.0267C209.86 42.2491 209.86 42.3108 210.145 42.3232C210.429 42.3355 210.615 42.3232 210.565 41.9279C210.553 41.6933 210.553 41.4582 210.565 41.2236C210.565 40.3218 210.565 40.3218 211.457 40.3341C211.642 40.3053 211.831 40.35 211.984 40.4585C212.136 40.567 212.241 40.7307 212.274 40.9148C212.342 41.194 212.38 41.4799 212.385 41.7672C212.387 41.8511 212.405 41.9337 212.439 42.0104C212.473 42.087 212.522 42.1562 212.583 42.2137C212.644 42.2712 212.716 42.316 212.795 42.3454C212.874 42.3748 212.958 42.3883 213.042 42.385C213.111 42.3977 213.182 42.3977 213.252 42.385C213.401 42.2491 213.524 42.1255 213.413 42.1255ZM211.865 39.7535C211.667 39.7658 211.469 39.7658 211.271 39.7535C210.603 39.7535 210.603 39.7535 210.603 39.074C210.603 38.3945 210.603 38.4439 211.259 38.4439H211.841C212.013 38.4405 212.179 38.5047 212.304 38.6225C212.429 38.7404 212.503 38.9025 212.509 39.074C212.509 39.2467 212.442 39.4128 212.322 39.5372C212.202 39.6616 212.038 39.7347 211.865 39.7411V39.7535Z" fill="#C6CDCB"/>
</svg>
