<svg width="234" height="25" viewBox="0 0 234 25" fill="none" xmlns="http://www.w3.org/2000/svg">
<path d="M220.595 6.91525C220.595 5.58893 221.779 4.68893 223.674 4.68893C225.9 4.68893 227.179 5.77841 227.653 8.00472H233.384C232.674 2.74683 228.6 0.473145 223.863 0.473145C218.274 0.473145 215.053 3.55209 215.053 7.38893C215.053 16.4363 228.505 12.5521 228.505 17.6205C228.505 19.1837 227.226 20.1784 224.81 20.1784C222.395 20.1784 220.831 18.9468 220.358 16.6731H214.674C215.479 21.8837 219.363 24.3468 224.763 24.3468C230.116 24.3468 234 21.6468 234 16.91C234.047 7.62577 220.595 11.7468 220.595 6.91525Z" fill="#C6CDCB"/>
<path d="M200.51 19.5152H197.1V5.3994H200.51C204.442 5.3994 206.716 8.00466 206.716 12.5047C206.716 16.9099 204.442 19.5152 200.51 19.5152ZM191.747 23.8731H200.51C207.758 23.8731 212.258 19.6099 212.258 12.5047C212.258 5.3994 207.758 1.0415 200.51 1.0415H191.747V23.8731Z" fill="#C6CDCB"/>
<path d="M183.268 23.8731H189.047L180.663 0.994141H174.221L165.884 23.8731H171.284L176.589 8.8573L177.3 6.2994L177.963 8.8573L183.268 23.8731Z" fill="#C6CDCB"/>
<path d="M104.353 23.8731H119.795V19.5152H109.753V0.994141H104.353V23.8731Z" fill="#C6CDCB"/>
<path d="M95.921 23.8731H101.653L93.2684 0.994141H86.8263L78.4894 23.8731H83.8894L89.2421 8.8573L89.9052 6.2994L90.6157 8.8573L95.921 23.8731Z" fill="#C6CDCB"/>
<path d="M77.021 15.1573V0.994141H71.621V15.1573C71.621 18.2362 70.0105 20.0836 67.2631 20.0836C64.5158 20.0836 62.9052 18.2362 62.9052 15.1573V0.994141H57.5052V15.1573C57.5052 20.8889 61.2 24.3941 67.2631 24.3941C73.2789 24.3941 77.021 20.8889 77.021 15.1573Z" fill="#C6CDCB"/>
<path d="M40.7368 6.91525C40.7368 5.58893 41.921 4.68893 43.8158 4.68893C46.0421 4.68893 47.321 5.77841 47.7947 8.00472H53.5263C52.8158 2.74683 48.7421 0.473145 44.0052 0.473145C38.4158 0.473145 35.1947 3.55209 35.1947 7.38893C35.1947 16.4363 48.6473 12.5521 48.6473 17.6205C48.6473 19.1837 47.3684 20.1784 44.9526 20.1784C42.5368 20.1784 40.9737 18.9468 40.5 16.6731H34.8158C35.621 21.8837 39.5052 24.3468 44.9052 24.3468C50.2579 24.3468 54.1421 21.6468 54.1421 16.91C54.1894 7.62577 40.7368 11.7468 40.7368 6.91525Z" fill="#C6CDCB"/>
<path d="M31.3105 0.994141H25.9105V23.8257H31.3105V0.994141Z" fill="#C6CDCB"/>
<path d="M17.7158 0.994141L12.4105 16.0099L11.7474 18.7099L11.0368 16.0099L5.73158 0.994141H0L8.43158 23.8731H14.7789L23.1631 0.994141H17.7158Z" fill="#C6CDCB"/>
<path d="M134.81 23.8731H129.363L120.979 0.994141H126.71L134.81 23.8731Z" fill="#98A2A0"/>
<path d="M162.426 23.8731H157.026L148.595 0.994141H154.326L162.426 23.8731Z" fill="#98A2A0"/>
<path d="M134.81 23.8731H140.21L148.595 0.994141H142.91L134.81 23.8731Z" fill="#98A2A0"/>
</svg>
