<svg width="423" height="72" viewBox="0 0 423 72" fill="none" xmlns="http://www.w3.org/2000/svg">
<g clip-path="url(#clip0_753_2)">
<path d="M53.4 70.9H38.2L37 70.2L29 53.6C28.4 52.4 27.9 51.2 27.5 50.2C27.1 51.3 26.6 52.4 26 53.6L17.9 70.2L16.7 70.9H1.79995L0.699951 69L18.4 34.9L1.89995 3L2.99995 1.1H18.2L19.4 1.8L26.4 16.5C26.9 17.5 27.3999 18.5 27.7999 19.4C28.1999 18.5 28.6 17.5 29.1 16.5L36.2999 1.7L37.5 1H52.2999L53.4 3L36.7999 34.9L54.5999 69L53.4 70.9ZM39 68.3H51.2999L34.2 35.5V34.3L50.0999 3.7H38.2L31.4 17.7C30.8 19 30.3 20.2 29.9 21.3C29.4 22.6 29.2 23.2 29.1 23.5H26.6C26.5 23.2 26.2999 22.6 25.7999 21.3C25.3999 20.2 24.8 19 24.1 17.7L17.4 3.7H5.09995L21 34.3V35.5L3.89995 68.3H15.8L23.6 52.4C24.3 51.1 24.8 49.9 25.2 48.7C25.6 47.6 25.9 46.7 26.1 46.1L28.5 46C28.7 46.6 29.1 47.5 29.6 48.6C30.1 49.8 30.6 51 31.2 52.3L39 68.3Z" fill="#98A2A0"/>
<path d="M108.2 70.9001H93L91.8 70.1001L80.7 42.4001H76.3V69.6001L75 70.9001H61.2L60 69.6001V2.4001L61.3 1.1001H75.1L76.4 2.4001V27.2001H80.8L91.5 1.9001L92.7 1.1001H107.7L108.9 2.9001L95.2 34.5001L109.4 69.1001L108.2 70.9001ZM93.9 68.3001H106.3L92.7 35.0001V34.0001L105.7 3.6001H93.5L82.8 28.9001L81.6 29.7001H75.1L73.8 28.4001V3.7001H62.5V68.4001H73.7V41.2001L75 39.9001H81.5L82.7 40.7001L93.9 68.3001Z" fill="#98A2A0"/>
<path d="M138.2 71.8001C133.5 71.8001 129.4 70.9001 125.9 69.1001C122.4 67.3001 119.6 64.8001 117.7 61.5001C115.8 58.3001 114.8 54.5001 114.8 50.2001V21.7001C114.8 17.4001 115.8 13.6001 117.7 10.4001C119.6 7.2001 122.4 4.6001 125.9 2.8001C129.4 1.0001 133.5 0.100098 138.2 0.100098C142.9 0.100098 147.1 1.0001 150.5 2.8001C154 4.6001 156.7 7.1001 158.7 10.4001C160.6 13.6001 161.6 17.4001 161.6 21.7001V50.3001C161.6 54.6001 160.6 58.4001 158.7 61.6001C156.8 64.8001 154 67.4001 150.5 69.2001C147 70.9001 142.9 71.8001 138.2 71.8001ZM138.2 2.7001C133.9 2.7001 130.2 3.5001 127.1 5.1001C124 6.7001 121.6 8.9001 119.9 11.7001C118.2 14.5001 117.4 17.9001 117.4 21.7001V50.3001C117.4 54.1001 118.3 57.5001 119.9 60.3001C121.6 63.1001 124 65.3001 127.1 66.9001C130.2 68.5001 134 69.3001 138.2 69.3001C142.5 69.3001 146.3 68.5001 149.4 66.9001C152.5 65.3001 154.9 63.1001 156.5 60.3001C158.2 57.5001 159 54.1001 159 50.3001V21.7001C159 17.9001 158.1 14.5001 156.5 11.7001C154.8 8.9001 152.4 6.7001 149.4 5.1001C146.2 3.5001 142.5 2.7001 138.2 2.7001ZM138.2 59.9001C135.1 59.9001 132.7 59.0001 131.1 57.3001C129.5 55.6001 128.7 53.3001 128.7 50.3001V21.7001C128.7 18.7001 129.5 16.3001 131.1 14.6001C132.7 12.9001 135.1 12.1001 138.3 12.1001C141.5 12.1001 143.9 12.9001 145.5 14.6001C147.1 16.3001 147.9 18.6001 147.9 21.7001V50.3001C147.9 53.3001 147.1 55.6001 145.5 57.3001C143.7 59.0001 141.3 59.9001 138.2 59.9001ZM138.2 14.7001C135.8 14.7001 134 15.3001 132.9 16.4001C131.8 17.6001 131.2 19.3001 131.2 21.7001V50.3001C131.2 52.6001 131.8 54.3001 132.9 55.5001C134 56.7001 135.8 57.3001 138.2 57.3001C140.6 57.3001 142.4 56.7001 143.5 55.5001C144.6 54.3001 145.2 52.5001 145.2 50.3001V21.7001C145.2 19.4001 144.6 17.6001 143.5 16.4001C142.4 15.3001 140.6 14.7001 138.2 14.7001Z" fill="#98A2A0"/>
<path d="M178.9 34.0001V12.6001H191.2V14.8001H181.1V22.2001H189.4V24.4001H181.1V34.0001H178.9Z" fill="#98A2A0"/>
<path d="M205.2 32.4001C206.9 32.4001 208.3 32.0001 209.4 31.2001C210.5 30.4001 211.4 29.4 211.9 28C212.5 26.6 212.7 25.1 212.7 23.3C212.7 21.5 212.4 19.9 211.9 18.6C211.3 17.2 210.5 16.2 209.4 15.4C208.3 14.6 206.9 14.2 205.2 14.2C203.5 14.2 202.1 14.6 201 15.4C199.9 16.2 199 17.2 198.5 18.6C197.9 20 197.6 21.5 197.6 23.3C197.6 25.1 197.9 26.7 198.4 28C199 29.4 199.8 30.4001 200.9 31.2001C202.2 32.0001 203.6 32.4001 205.2 32.4001ZM205.2 34.5C203.1 34.5 201.3 34 199.8 33.1C198.3 32.1 197.2 30.8001 196.5 29.2001C195.7 27.5001 195.4 25.6 195.4 23.4C195.4 21.2 195.8 19.3 196.5 17.6C197.3 15.9 198.4 14.6 199.8 13.7C201.3 12.7 203.1 12.3 205.2 12.3C207.3 12.3 209.1 12.8 210.6 13.7C212.1 14.7 213.2 16 213.9 17.6C214.7 19.3 215 21.2 215 23.4C215 25.6 214.6 27.5001 213.9 29.2001C213.1 30.9001 212 32.2 210.6 33.1C209.2 34 207.4 34.5 205.2 34.5Z" fill="#98A2A0"/>
<path d="M229.5 32.4001C231.2 32.4001 232.6 32.0001 233.7 31.2001C234.8 30.4001 235.7 29.4 236.2 28C236.8 26.6 237 25.1 237 23.3C237 21.5 236.7 19.9 236.2 18.6C235.6 17.2 234.8 16.2 233.7 15.4C232.6 14.6 231.2 14.2 229.5 14.2C227.8 14.2 226.4 14.6 225.3 15.4C224.2 16.2 223.3 17.2 222.8 18.6C222.2 20 221.9 21.5 221.9 23.3C221.9 25.1 222.2 26.7 222.7 28C223.3 29.4 224.1 30.4001 225.2 31.2001C226.4 32.0001 227.8 32.4001 229.5 32.4001ZM229.5 34.5C227.4 34.5 225.6 34 224.1 33.1C222.6 32.1 221.5 30.8001 220.8 29.2001C220 27.5001 219.7 25.6 219.7 23.4C219.7 21.2 220.1 19.3 220.8 17.6C221.6 15.9 222.7 14.6 224.1 13.7C225.6 12.7 227.4 12.3 229.5 12.3C231.6 12.3 233.4 12.8 234.9 13.7C236.4 14.7 237.5 16 238.2 17.6C239 19.3 239.3 21.2 239.3 23.4C239.3 25.6 238.9 27.5001 238.2 29.2001C237.4 30.9001 236.3 32.2 234.9 33.1C233.4 34 231.6 34.5 229.5 34.5Z" fill="#98A2A0"/>
<path d="M250.1 34.0001V14.7001H242.6V12.6001H259.7V14.7001H252.3V34.0001H250.1Z" fill="#98A2A0"/>
<path d="M269.4 34.0001L263.2 12.6001H265.5L270.5 30.3001L275.5 12.6001H277.8L282.8 30.3001L287.8 12.6001H290L283.9 34.0001H281.7L276.6 16.5001L271.6 34.0001H269.4Z" fill="#98A2A0"/>
<path d="M295.3 34.0001V12.6001H308.7V14.7001H297.5V22.1001H306.9V24.2001H297.5V31.9001H308.7V34.0001H295.3Z" fill="#98A2A0"/>
<path d="M316.7 26.8001H327.8V28.9001H316.7V26.8001ZM313.4 34.0001L320.8 12.6001H323.7L331.1 34.0001H328.8L321.8 13.8001H322.7L315.7 34.0001H313.4Z" fill="#98A2A0"/>
<path d="M349.4 34.0001L345.2 25.3001L347.3 24.5001L351.9 34.0001H349.4ZM338.6 23.8001H344.6C344.8 23.8001 345 23.8001 345.2 23.8001C345.4 23.8001 345.7 23.7001 345.9 23.7001C346.6 23.5001 347.2 23.2001 347.7 22.8001C348.2 22.3001 348.5 21.8001 348.8 21.2001C349 20.6001 349.2 19.9001 349.2 19.3001C349.2 18.6001 349.1 18.0001 348.8 17.4001C348.6 16.8001 348.2 16.2001 347.7 15.8001C347.2 15.4001 346.6 15.0001 345.9 14.9001C345.7 14.8001 345.4 14.8001 345.2 14.8001C345 14.8001 344.7 14.8001 344.6 14.8001H338.6V23.8001ZM336.4 34.0001V12.6001H344.7C344.9 12.6001 345.2 12.6001 345.4 12.6001C345.7 12.6001 345.9 12.7001 346.2 12.7001C347.3 12.9001 348.3 13.3001 349.1 13.9001C349.9 14.5001 350.5 15.3001 350.9 16.2001C351.3 17.1001 351.5 18.1001 351.5 19.3001C351.5 20.9001 351.1 22.3001 350.2 23.5001C349.3 24.7001 348.1 25.4001 346.5 25.8001L345.7 26.0001H338.6V34.1001L336.4 34.0001Z" fill="#98A2A0"/>
<path d="M184.6 69.7V50.4001H177.2V48.3H194.3V50.4001H186.8V69.7H184.6Z" fill="#98A2A0"/>
<path d="M199.4 69.7V48.3H212.7V50.4001H201.5V57.8H211V59.9001H201.5V67.6H212.7V69.7H199.4Z" fill="#98A2A0"/>
<path d="M226.9 70.2C224.8 70.2 223 69.7 221.5 68.8C220 67.8 218.9 66.5 218.2 64.9C217.4 63.2 217.1 61.3 217.1 59.1C217.1 56.9 217.5 55 218.2 53.3C219 51.6 220.1 50.3 221.5 49.4C223 48.4 224.8 48 226.9 48C229.4 48 231.4 48.6 233 49.9C234.6 51.2 235.7 52.9 236.2 55L234 55.6C233.5 53.9 232.7 52.6 231.5 51.6C230.3 50.6 228.8 50.1 226.8 50.1C225.1 50.1 223.7 50.5 222.6 51.3C221.5 52.1 220.6 53.1 220.1 54.5C219.5 55.9 219.2 57.4 219.2 59.2C219.2 61 219.5 62.6 220 63.9C220.6 65.3 221.4 66.3 222.5 67.1C223.6 67.9 225 68.3 226.7 68.3C228.6 68.3 230.2 67.8 231.4 66.8C232.6 65.8 233.4 64.5 233.9 62.8L236.1 63.4C235.5 65.5 234.4 67.3 232.9 68.5C231.4 69.5 229.4 70.2 226.9 70.2Z" fill="#98A2A0"/>
<path d="M242.2 69.7V48.3H244.4V57.9001H256.2V48.3H258.4V69.7H256.2V60H244.4V69.7H242.2Z" fill="#98A2A0"/>
<path d="M265.2 69.7V48.3H267.4L279.2 65.8001V48.3H281.4V69.7H279.2L267.4 52.2001V69.7H265.2Z" fill="#98A2A0"/>
<path d="M296.9 68.1C298.6 68.1 300 67.7 301.1 66.9C302.2 66.1 303.1 65.1 303.6 63.7C304.2 62.3 304.4 60.8 304.4 59C304.4 57.2 304.1 55.6 303.6 54.3C303 52.9 302.2 51.9 301.1 51.1C300 50.3 298.6 49.9 296.9 49.9C295.2 49.9 293.8 50.3 292.7 51.1C291.6 51.9 290.7 52.9 290.2 54.3C289.6 55.7 289.3 57.2 289.3 59C289.3 60.8 289.6 62.4 290.1 63.7C290.7 65.1 291.5 66.1 292.6 66.9C293.9 67.7 295.3 68.1 296.9 68.1ZM296.9 70.2C294.8 70.2 293 69.7 291.5 68.8C290 67.8 288.9 66.5 288.2 64.9C287.4 63.2 287.1 61.3 287.1 59.1C287.1 56.9 287.5 55 288.2 53.3C289 51.6 290.1 50.3 291.5 49.4C292.9 48.5 294.8 48 296.9 48C299 48 300.8 48.5 302.3 49.4C303.8 50.4 304.9 51.7 305.6 53.3C306.4 55 306.7 56.9 306.7 59.1C306.7 61.3 306.3 63.2 305.6 64.9C304.8 66.6 303.7 67.9 302.3 68.8C300.9 69.7 299.1 70.2 296.9 70.2Z" fill="#98A2A0"/>
<path d="M312.7 69.7V48.3H314.9V67.6H325.1V69.7H312.7Z" fill="#98A2A0"/>
<path d="M338.4 68.1C340.1 68.1 341.5 67.7 342.6 66.9C343.7 66.1 344.6 65.1 345.1 63.7C345.7 62.3 345.9 60.8 345.9 59C345.9 57.2 345.6 55.6 345.1 54.3C344.5 52.9 343.7 51.9 342.6 51.1C341.5 50.3 340.1 49.9 338.4 49.9C336.7 49.9 335.3 50.3 334.2 51.1C333.1 51.9 332.2 52.9 331.7 54.3C331.1 55.7 330.8 57.2 330.8 59C330.8 60.8 331.1 62.4 331.6 63.7C332.2 65.1 333 66.1 334.1 66.9C335.3 67.7 336.7 68.1 338.4 68.1ZM338.4 70.2C336.3 70.2 334.5 69.7 333 68.8C331.5 67.8 330.4 66.5 329.7 64.9C328.9 63.2 328.6 61.3 328.6 59.1C328.6 56.9 329 55 329.7 53.3C330.5 51.6 331.6 50.3 333 49.4C334.5 48.4 336.3 48 338.4 48C340.5 48 342.3 48.5 343.8 49.4C345.3 50.4 346.4 51.7 347.1 53.3C347.9 55 348.2 56.9 348.2 59.1C348.2 61.3 347.8 63.2 347.1 64.9C346.3 66.6 345.2 67.9 343.8 68.8C342.4 69.7 340.5 70.2 338.4 70.2Z" fill="#98A2A0"/>
<path d="M362.5 70.2C361 70.2 359.6 69.9001 358.4 69.4001C357.2 68.9001 356.2 68.1 355.3 67.1C354.4 66.1 353.8 65 353.4 63.6C352.9 62.2 352.7 60.7 352.7 59C352.7 56.8 353.1 54.8 353.9 53.1C354.7 51.4 355.8 50.1001 357.3 49.2001C358.8 48.3001 360.5 47.8 362.6 47.8C364.9 47.8 366.7 48.3001 368.2 49.4001C369.6 50.5001 370.6 51.9001 371.2 53.7001L369 54.2001C368.5 52.9001 367.8 51.8 366.7 51.1C365.6 50.3 364.3 49.9001 362.7 49.9001C361 49.9001 359.6 50.3 358.5 51C357.4 51.8 356.5 52.8001 356 54.2001C355.4 55.6001 355.1 57.1001 355.1 58.9001C355.1 60.7001 355.4 62.3 355.9 63.6C356.5 65 357.3 66.0001 358.4 66.8001C359.5 67.6001 360.9 68 362.6 68C364.1 68 365.4 67.7 366.4 67.1C367.4 66.5 368.2 65.6 368.7 64.5C369.2 63.4 369.5 62.1 369.6 60.6H364.7V58.7001H371.9C371.9 58.9001 372 59.2001 372 59.4001C372 59.6001 372 59.8 372 60C372 61.9 371.6 63.7 371 65.2C370.3 66.7 369.3 67.9001 367.9 68.8001C366.3 69.7001 364.6 70.2 362.5 70.2Z" fill="#98A2A0"/>
<path d="M380 48.3H377.8V69.7H380V48.3Z" fill="#98A2A0"/>
<path d="M387.2 69.7V48.3H400.6V50.4001H389.4V57.8H398.8V59.9001H389.4V67.6H400.6V69.7H387.2Z" fill="#98A2A0"/>
<path d="M413.5 70.1999C412 70.1999 410.7 69.8999 409.5 69.3999C408.3 68.8999 407.3 68.1999 406.5 67.2999C405.7 66.3999 405.2 65.2999 405 63.9999L407.2 63.5999C407.6 64.9999 408.3 66.0999 409.5 66.8999C410.7 67.6999 412 68.0999 413.6 68.0999C414.7 68.0999 415.6 67.8999 416.4 67.5999C417.2 67.2999 417.9 66.7999 418.4 66.1999C418.9 65.5999 419.1 64.7999 419.1 63.9999C419.1 63.3999 419 62.9999 418.8 62.5999C418.6 62.1999 418.3 61.8999 418 61.5999C417.7 61.2999 417.3 61.0999 416.9 60.8999C416.5 60.6999 416.1 60.5999 415.8 60.4999L410.4 58.8999C409.7 58.6999 409.1 58.4999 408.6 58.1999C408 57.8999 407.6 57.4999 407.1 57.0999C406.7 56.6999 406.4 56.1999 406.1 55.5999C405.9 54.9999 405.7 54.3999 405.7 53.6999C405.7 52.4999 406 51.3999 406.7 50.5999C407.3 49.6999 408.2 48.9999 409.3 48.5999C410.4 48.0999 411.7 47.8999 413.1 47.8999C414.5 47.8999 415.8 48.1999 416.9 48.6999C418 49.1999 419 49.8999 419.7 50.8999C420.4 51.7999 420.9 52.9999 421.2 54.1999L418.9 54.5999C418.7 53.6999 418.4 52.8999 417.9 52.1999C417.4 51.4999 416.7 50.9999 415.8 50.5999C415 50.1999 414.1 49.9999 413.1 49.9999C412.1 49.9999 411.3 50.1999 410.5 50.4999C409.7 50.7999 409.2 51.2999 408.7 51.7999C408.3 52.3999 408 52.9999 408 53.6999C408 54.3999 408.2 54.9999 408.6 55.3999C409 55.7999 409.5 56.1999 410.1 56.3999C410.7 56.6999 411.3 56.8999 411.8 56.9999L416 58.1999C416.4 58.2999 417 58.4999 417.5 58.6999C418.1 58.8999 418.7 59.1999 419.2 59.6999C419.8 60.0999 420.2 60.6999 420.6 61.2999C421 61.8999 421.2 62.7999 421.2 63.7999C421.2 64.7999 421 65.6999 420.6 66.4999C420.2 67.2999 419.7 67.8999 418.9 68.4999C418.2 68.9999 417.4 69.4999 416.4 69.6999C415.6 69.9999 414.6 70.1999 413.5 70.1999Z" fill="#98A2A0"/>
</g>
<defs>
<clipPath id="clip0_753_2">
<rect width="423" height="72" fill="white"/>
</clipPath>
</defs>
</svg>
