<svg width="251" height="29" viewBox="0 0 251 29" fill="none" xmlns="http://www.w3.org/2000/svg">
<path d="M149.181 12.9042V3.95361H154.322V4.86751H150.095V7.97195H153.576V8.88584H150.095V12.9042H149.181Z" fill="#98A2A0"/>
<path d="M160.182 12.2131C160.88 12.2131 161.466 12.0526 161.933 11.7317C162.401 11.4108 162.757 10.9713 162.987 10.3992C163.224 9.82717 163.336 9.1714 163.336 8.42494C163.336 7.67848 163.217 7.02271 162.987 6.45065C162.75 5.88558 162.401 5.43909 161.933 5.11819C161.466 4.79728 160.88 4.63682 160.182 4.62985C159.485 4.62985 158.899 4.7903 158.438 5.11121C157.971 5.43212 157.622 5.8786 157.392 6.44368C157.155 7.01573 157.036 7.6715 157.036 8.41797C157.029 9.16443 157.148 9.8202 157.378 10.3853C157.615 10.9504 157.964 11.3968 158.431 11.7177C158.899 12.0456 159.485 12.2131 160.182 12.2131ZM160.182 13.0921C159.289 13.0921 158.536 12.8967 157.922 12.4991C157.308 12.1014 156.841 11.5573 156.527 10.8527C156.213 10.1551 156.052 9.34581 156.052 8.42494C156.052 7.51105 156.213 6.7018 156.527 5.9972C156.841 5.29957 157.308 4.74844 157.922 4.3508C158.536 3.95315 159.289 3.75781 160.182 3.75781C161.075 3.75781 161.829 3.95315 162.443 4.3508C163.057 4.74844 163.517 5.29259 163.838 5.9972C164.152 6.69482 164.312 7.50407 164.312 8.42494C164.312 9.33883 164.152 10.1481 163.838 10.8527C163.524 11.5503 163.057 12.1014 162.443 12.4991C161.836 12.8967 161.082 13.0921 160.182 13.0921Z" fill="#98A2A0"/>
<path d="M170.305 12.2131C171.002 12.2131 171.588 12.0526 172.056 11.7317C172.523 11.4108 172.872 10.9713 173.109 10.3992C173.346 9.82717 173.458 9.1714 173.458 8.42494C173.458 7.67848 173.339 7.02271 173.109 6.45065C172.872 5.88558 172.523 5.43909 172.056 5.11819C171.588 4.79728 171.002 4.63682 170.305 4.62985C169.607 4.62985 169.021 4.7903 168.561 5.11121C168.093 5.43212 167.744 5.8786 167.514 6.44368C167.277 7.01573 167.158 7.6715 167.158 8.41797C167.151 9.16443 167.27 9.8202 167.5 10.3853C167.737 10.9504 168.086 11.3968 168.554 11.7177C169.014 12.0456 169.6 12.2131 170.305 12.2131ZM170.305 13.0921C169.412 13.0921 168.658 12.8967 168.044 12.4991C167.431 12.1014 166.963 11.5573 166.649 10.8527C166.335 10.1551 166.175 9.34581 166.175 8.42494C166.175 7.51105 166.335 6.7018 166.649 5.9972C166.963 5.29957 167.431 4.74844 168.044 4.3508C168.658 3.95315 169.412 3.75781 170.305 3.75781C171.198 3.75781 171.951 3.95315 172.565 4.3508C173.179 4.74844 173.639 5.29259 173.96 5.9972C174.274 6.69482 174.435 7.50407 174.435 8.42494C174.435 9.33883 174.274 10.1481 173.96 10.8527C173.646 11.5503 173.179 12.1014 172.565 12.4991C171.951 12.8967 171.198 13.0921 170.305 13.0921Z" fill="#98A2A0"/>
<path d="M178.928 12.9042V4.83262H175.795V3.95361H182.967V4.83262H179.841V12.9042H178.928Z" fill="#98A2A0"/>
<path d="M186.999 12.9042L184.418 3.95361H185.367L187.46 11.3485L189.545 3.96059L190.501 3.95361L192.594 11.3485L194.68 3.95361H195.636L193.054 12.9042H192.141L190.02 5.56513L187.92 12.9042H186.999Z" fill="#98A2A0"/>
<path d="M197.833 12.9042V3.95361H203.428V4.83262H198.747V7.92311H202.682V8.80213H198.747V12.0321H203.428V12.9042H197.833Z" fill="#98A2A0"/>
<path d="M206.791 9.87647H211.416V10.7346H206.791V9.87647ZM205.416 12.9042L208.5 3.95361H209.714L212.797 12.9042H211.849L208.918 4.46288H209.281L206.372 12.9042H205.416Z" fill="#98A2A0"/>
<path d="M220.457 12.9042L218.692 9.26256L219.571 8.9277L221.511 12.9042H220.457V12.9042ZM215.951 8.63469H218.469C218.546 8.63469 218.63 8.62772 218.727 8.62074C218.825 8.61377 218.923 8.59981 219.02 8.57888C219.327 8.5161 219.578 8.38355 219.774 8.20217C219.969 8.01381 220.115 7.79057 220.213 7.53942C220.311 7.2813 220.36 7.0162 220.36 6.73715C220.36 6.4581 220.311 6.193 220.213 5.93488C220.115 5.67675 219.969 5.45351 219.774 5.26515C219.578 5.07679 219.327 4.95122 219.02 4.88843C218.923 4.86751 218.825 4.85355 218.727 4.84658C218.63 4.8396 218.539 4.8396 218.469 4.8396H215.951V8.63469ZM215.037 12.9042V3.95361H218.497C218.581 3.95361 218.685 3.95361 218.79 3.96059C218.902 3.96757 219.013 3.98152 219.125 4.00245C219.592 4.07221 219.99 4.23266 220.318 4.49079C220.646 4.74891 220.89 5.06284 221.057 5.45351C221.225 5.83721 221.308 6.26276 221.308 6.73715C221.308 7.41385 221.127 7.99985 220.771 8.49517C220.415 8.99048 219.906 9.30442 219.243 9.43697L218.93 9.51371H215.951V12.9181H215.037V12.9042Z" fill="#98A2A0"/>
<path d="M151.56 27.8265V19.755H148.434V18.876H155.606V19.755H152.473V27.8265H151.56Z" fill="#98A2A0"/>
<path d="M157.72 27.8265V18.876H163.315V19.755H158.633V22.8455H162.568V23.7245H158.633V26.9545H163.315V27.8265H157.72Z" fill="#98A2A0"/>
<path d="M169.237 28.0149C168.345 28.0149 167.591 27.8196 166.977 27.4219C166.363 27.0243 165.896 26.4801 165.582 25.7755C165.268 25.0779 165.108 24.2687 165.108 23.3478C165.108 22.4269 165.268 21.6247 165.582 20.92C165.896 20.2224 166.363 19.6713 166.977 19.2736C167.591 18.876 168.345 18.6807 169.237 18.6807C170.277 18.6807 171.128 18.9458 171.784 19.4829C172.44 20.0131 172.893 20.7317 173.137 21.6247L172.202 21.8688C172.014 21.1572 171.672 20.5991 171.177 20.1806C170.682 19.769 170.033 19.5597 169.231 19.5597C168.533 19.5597 167.947 19.7201 167.486 20.041C167.019 20.3619 166.67 20.8084 166.44 21.3735C166.203 21.9456 166.084 22.6013 166.077 23.3478C166.07 24.0943 166.189 24.75 166.419 25.3221C166.656 25.8872 167.005 26.3336 167.473 26.6545C167.94 26.9755 168.526 27.1359 169.231 27.1359C170.033 27.1359 170.682 26.9266 171.177 26.508C171.672 26.0895 172.014 25.5314 172.202 24.8268L173.137 25.0709C172.893 25.9639 172.44 26.6825 171.784 27.2126C171.128 27.7498 170.277 28.0149 169.237 28.0149Z" fill="#98A2A0"/>
<path d="M175.628 27.8265V18.876H176.542V22.9083H181.495V18.876H182.402V27.8265H181.495V23.7873H176.542V27.8265H175.628Z" fill="#98A2A0"/>
<path d="M185.262 27.8265V18.876H186.183L191.108 26.208V18.876H192.029V27.8265H191.108L186.183 20.4875V27.8265H185.262Z" fill="#98A2A0"/>
<path d="M198.517 27.1359C199.215 27.1359 199.801 26.9755 200.268 26.6545C200.735 26.3336 201.091 25.8941 201.321 25.3221C201.559 24.75 201.67 24.0943 201.67 23.3478C201.67 22.6013 201.552 21.9456 201.321 21.3735C201.084 20.8084 200.735 20.3619 200.268 20.041C199.801 19.7201 199.215 19.5597 198.517 19.5527C197.819 19.5527 197.233 19.7132 196.773 20.0341C196.305 20.355 195.957 20.8015 195.726 21.3665C195.489 21.9386 195.371 22.5944 195.371 23.3408C195.364 24.0873 195.482 24.743 195.712 25.3081C195.95 25.8732 196.298 26.3197 196.766 26.6406C197.233 26.9685 197.819 27.1359 198.517 27.1359ZM198.517 28.0149C197.624 28.0149 196.871 27.8196 196.257 27.4219C195.643 27.0243 195.175 26.4801 194.861 25.7755C194.547 25.0779 194.387 24.2687 194.387 23.3478C194.387 22.4269 194.547 21.6247 194.861 20.92C195.175 20.2224 195.643 19.6713 196.257 19.2736C196.871 18.876 197.624 18.6807 198.517 18.6807C199.41 18.6807 200.163 18.876 200.777 19.2736C201.391 19.6713 201.852 20.2154 202.172 20.92C202.486 21.6177 202.647 22.4269 202.647 23.3478C202.647 24.2687 202.486 25.0709 202.172 25.7755C201.859 26.4732 201.391 27.0243 200.777 27.4219C200.163 27.8196 199.41 28.0149 198.517 28.0149Z" fill="#98A2A0"/>
<path d="M205.13 27.8265V18.876H206.044V26.9545H210.3V27.8265H205.13Z" fill="#98A2A0"/>
<path d="M215.853 27.1359C216.551 27.1359 217.137 26.9755 217.604 26.6545C218.071 26.3336 218.42 25.8941 218.657 25.3221C218.895 24.75 219.006 24.0943 219.006 23.3478C219.006 22.6013 218.888 21.9456 218.657 21.3735C218.42 20.8084 218.071 20.3619 217.604 20.041C217.137 19.7201 216.551 19.5597 215.853 19.5527C215.155 19.5527 214.569 19.7132 214.109 20.0341C213.642 20.355 213.293 20.8015 213.062 21.3665C212.825 21.9386 212.707 22.5944 212.707 23.3408C212.7 24.0873 212.818 24.743 213.049 25.3081C213.286 25.8732 213.635 26.3197 214.102 26.6406C214.569 26.9685 215.148 27.1359 215.853 27.1359ZM215.853 28.0149C214.96 28.0149 214.207 27.8196 213.593 27.4219C212.979 27.0243 212.511 26.4801 212.197 25.7755C211.883 25.0779 211.723 24.2687 211.723 23.3478C211.723 22.4269 211.883 21.6247 212.197 20.92C212.511 20.2224 212.979 19.6713 213.593 19.2736C214.207 18.876 214.96 18.6807 215.853 18.6807C216.746 18.6807 217.499 18.876 218.113 19.2736C218.727 19.6713 219.188 20.2154 219.509 20.92C219.822 21.6177 219.983 22.4269 219.983 23.3478C219.983 24.2687 219.822 25.0709 219.509 25.7755C219.195 26.4732 218.727 27.0243 218.113 27.4219C217.499 27.8196 216.746 28.0149 215.853 28.0149Z" fill="#98A2A0"/>
<path d="M225.927 28.0148C225.299 28.0148 224.727 27.9032 224.224 27.6869C223.715 27.4637 223.29 27.1567 222.934 26.7451C222.578 26.3405 222.306 25.8521 222.125 25.2731C221.936 24.7011 221.845 24.0592 221.845 23.3477C221.845 22.4128 222.006 21.5966 222.334 20.892C222.662 20.1944 223.129 19.6502 223.736 19.2665C224.343 18.8828 225.075 18.6875 225.934 18.6875C226.889 18.6875 227.664 18.9107 228.264 19.3572C228.864 19.8037 229.282 20.4037 229.519 21.1501L228.598 21.3734C228.403 20.8292 228.082 20.3897 227.636 20.0618C227.189 19.7339 226.638 19.5735 225.975 19.5735C225.278 19.5665 224.692 19.727 224.231 20.0409C223.764 20.3548 223.415 20.8013 223.185 21.3734C222.948 21.9454 222.829 22.6012 222.829 23.3477C222.822 24.0941 222.941 24.7499 223.171 25.315C223.408 25.88 223.757 26.3265 224.224 26.6474C224.692 26.9683 225.278 27.1288 225.975 27.1358C226.617 27.1358 227.147 27.0102 227.566 26.766C227.985 26.5149 228.305 26.1591 228.522 25.6987C228.738 25.2312 228.864 24.6871 228.891 24.0523H226.827V23.2709H229.847C229.861 23.3686 229.868 23.4662 229.868 23.5709C229.868 23.6755 229.868 23.7523 229.868 23.8011C229.868 24.6104 229.722 25.3289 229.436 25.9707C229.143 26.6056 228.71 27.1079 228.124 27.4776C227.538 27.8334 226.806 28.0148 225.927 28.0148Z" fill="#98A2A0"/>
<path d="M233.266 18.876H232.352V27.8265H233.266V18.876Z" fill="#98A2A0"/>
<path d="M236.252 27.8265V18.876H241.847V19.755H237.166V22.8455H241.1V23.7245H237.166V26.9545H241.847V27.8265H236.252Z" fill="#98A2A0"/>
<path d="M247.239 28.0148C246.611 28.0148 246.053 27.9102 245.551 27.7009C245.049 27.4916 244.637 27.1916 244.316 26.808C243.988 26.4243 243.779 25.9638 243.681 25.4336L244.616 25.2801C244.763 25.8592 245.084 26.3126 245.558 26.6475C246.039 26.9754 246.611 27.1428 247.281 27.1428C247.721 27.1428 248.111 27.0731 248.46 26.9335C248.809 26.794 249.081 26.5987 249.283 26.3405C249.486 26.0824 249.583 25.7755 249.583 25.4266C249.583 25.1964 249.541 24.9941 249.458 24.8337C249.374 24.6732 249.262 24.5337 249.13 24.429C248.99 24.3244 248.844 24.2337 248.683 24.157C248.523 24.0872 248.362 24.0244 248.209 23.9826L245.942 23.3059C245.67 23.2291 245.418 23.1245 245.181 23.0059C244.951 22.8803 244.749 22.7338 244.574 22.5664C244.4 22.392 244.267 22.1897 244.177 21.9594C244.079 21.7292 244.03 21.4641 244.03 21.1641C244.03 20.6619 244.163 20.2223 244.428 19.8526C244.693 19.4829 245.056 19.1968 245.516 19.0015C245.977 18.8062 246.5 18.7085 247.086 18.7085C247.686 18.7085 248.216 18.8131 248.69 19.0224C249.158 19.2317 249.548 19.5387 249.855 19.9293C250.162 20.32 250.365 20.7874 250.462 21.3176L249.507 21.492C249.444 21.1014 249.304 20.7665 249.074 20.4805C248.851 20.1944 248.565 19.9712 248.216 19.8177C247.867 19.6642 247.49 19.5805 247.072 19.5805C246.667 19.5805 246.311 19.6503 245.998 19.7828C245.684 19.9154 245.439 20.1038 245.251 20.334C245.07 20.5642 244.979 20.8293 244.979 21.1293C244.979 21.4292 245.063 21.6734 245.23 21.8548C245.398 22.0362 245.607 22.1827 245.851 22.2803C246.095 22.385 246.339 22.4687 246.57 22.5385L248.321 23.0547C248.502 23.1035 248.718 23.1733 248.962 23.271C249.207 23.3617 249.451 23.4942 249.681 23.6686C249.918 23.843 250.107 24.0663 250.26 24.3453C250.414 24.6244 250.49 24.9732 250.49 25.3987C250.49 25.8103 250.407 26.1871 250.246 26.5149C250.079 26.8428 249.855 27.1149 249.555 27.3451C249.262 27.5684 248.914 27.7428 248.516 27.8614C248.139 27.9521 247.707 28.0148 247.239 28.0148Z" fill="#98A2A0"/>
<path d="M24.0472 10.5948V12.8063H16.164V11.0832C16.164 9.60421 15.7594 8.45312 14.9571 7.6369C14.1479 6.8137 13.0735 6.4021 11.7271 6.4021C10.3179 6.4021 9.23659 6.8137 8.49711 7.6369C7.75762 8.4601 7.38788 9.60421 7.38788 11.0832V27.8332H0V0.737363H6.89954V5.91376H6.97628C7.29719 4.50455 7.86226 3.35347 8.67849 2.46748C10.0249 0.988509 11.9992 0.249023 14.5944 0.249023C17.5802 0.249023 19.9103 1.15594 21.5637 2.95582C23.217 4.76267 24.0472 7.30902 24.0472 10.5948Z" fill="#C6CDCB"/>
<path d="M35.5302 11.0832C35.5302 9.40887 35.9348 8.11129 36.737 7.19042C37.5393 6.26955 38.7462 5.80912 40.3577 5.80912C41.9693 5.80912 43.1552 6.2556 43.9296 7.14158C44.704 8.02757 45.0876 9.31121 45.0876 10.9855V11.732L35.5302 11.8227V11.0832ZM52.1337 16.0154V11.0902C52.1337 8.92053 51.6453 7.02299 50.6826 5.39752C49.7129 3.77204 48.3525 2.50934 46.5945 1.60242C44.8365 0.702482 42.7576 0.249023 40.3647 0.249023C37.9649 0.249023 35.872 0.702482 34.0791 1.60242C32.2862 2.50934 30.9119 3.77204 29.9422 5.39752C28.9725 7.02299 28.4911 8.92053 28.4911 11.0902V17.4944C28.4911 19.664 28.9725 21.5615 29.9422 23.187C30.9119 24.8125 32.2932 26.0752 34.0791 26.9821C35.865 27.8821 37.9649 28.3355 40.3647 28.3355C43.2878 28.3355 45.7923 27.61 47.8782 26.1659C49.9641 24.7218 51.3035 22.8173 51.8965 20.4523H44.6412C44.411 21.143 43.9435 21.6871 43.2389 22.0778C42.5343 22.4754 41.6065 22.6708 40.4554 22.6708C38.809 22.6708 37.5812 22.2382 36.758 21.3662C35.9348 20.4942 35.5232 19.2036 35.5232 17.4944V16.0154H52.1337Z" fill="#C6CDCB"/>
<path d="M70.0208 28.3285C67.621 28.3285 65.5212 27.8751 63.7143 26.9751C61.9074 26.0752 60.5122 24.8055 59.5285 23.18C58.5449 21.5546 58.0496 19.657 58.0496 17.4874V11.0832C58.0496 8.88565 58.5449 6.97415 59.5285 5.36961C60.5122 3.75809 61.9074 2.50236 63.7143 1.60242C65.5212 0.702482 67.621 0.249023 70.0208 0.249023C73.5997 0.249023 76.46 1.15594 78.5947 2.95582C80.7294 4.76267 81.8596 7.2253 81.9921 10.3437H74.6043C74.5066 9.19261 74.0531 8.29267 73.2509 7.6369C72.4486 6.98113 71.3673 6.65324 70.0208 6.65324C68.5419 6.65324 67.4117 7.02996 66.6234 7.7834C65.8351 8.53684 65.4374 9.63909 65.4374 11.0832V17.4874C65.4374 18.8966 65.8351 19.9919 66.6234 20.7663C67.4117 21.5406 68.5419 21.9243 70.0208 21.9243C71.3673 21.9243 72.4416 21.6034 73.2509 20.9616C74.0531 20.3198 74.5066 19.4059 74.6043 18.2269H81.9921C81.8596 21.3453 80.7294 23.8149 78.5947 25.6148C76.453 27.4286 73.5997 28.3285 70.0208 28.3285Z" fill="#C6CDCB"/>
<path d="M99.4328 21.9245C100.877 21.9245 101.979 21.5408 102.733 20.7664C103.486 19.992 103.863 18.9037 103.863 17.4875V11.0833C103.863 9.63923 103.486 8.53698 102.733 7.78354C101.979 7.0301 100.877 6.65339 99.4328 6.65339C98.0236 6.65339 96.9283 7.0301 96.154 7.78354C95.3796 8.53698 94.9959 9.63923 94.9959 11.0833V17.4875C94.9959 18.8968 95.3796 19.992 96.154 20.7664C96.9283 21.5408 98.0236 21.9245 99.4328 21.9245ZM99.4328 28.3287C97.033 28.3287 94.9471 27.8752 93.1751 26.9753C91.4031 26.0753 90.0288 24.8057 89.0591 23.1802C88.0894 21.5547 87.608 19.6572 87.608 17.4875V11.0833C87.608 8.9137 88.0894 7.01615 89.0591 5.39068C90.0288 3.76521 91.4031 2.5025 93.1751 1.59559C94.9471 0.695646 97.033 0.242188 99.4328 0.242188C101.861 0.242188 103.96 0.695646 105.718 1.59559C107.476 2.5025 108.837 3.76521 109.807 5.39068C110.776 7.01615 111.258 8.9137 111.258 11.0833V17.4875C111.258 19.6572 110.769 21.5547 109.807 23.1802C108.837 24.8057 107.476 26.0684 105.718 26.9753C103.96 27.8822 101.861 28.3287 99.4328 28.3287Z" fill="#98A2A0"/>
<path d="M140.628 10.3437V27.8332H133.24V11.0832C133.24 9.67397 132.87 8.5787 132.131 7.80433C131.391 7.02996 130.352 6.64627 129.005 6.64627C127.694 6.64627 126.675 7.02996 125.95 7.80433C125.224 8.5787 124.868 9.667 124.868 11.0832V27.8332H117.48V0.737363H124.624V5.91376H124.764C125.022 4.41386 125.629 3.18604 126.598 2.21633C127.91 0.904793 129.689 0.249023 131.921 0.249023C134.551 0.249023 136.658 1.16989 138.256 3.01163C139.825 4.84639 140.628 7.28809 140.628 10.3437Z" fill="#98A2A0"/>
</svg>
