<?xml version="1.0" encoding="utf-8"?>
<!-- Generator: Adobe Illustrator 26.0.3, SVG Export Plug-In . SVG Version: 6.00 Build 0)  -->
<svg version="1.1" id="Layer_1" xmlns="http://www.w3.org/2000/svg" xmlns:xlink="http://www.w3.org/1999/xlink" x="0px" y="0px"
	 viewBox="0 0 923.6 153.3" style="enable-background:new 0 0 923.6 153.3;" xml:space="preserve">
<style type="text/css">
	.st0{fill:#373A36;}
</style>
<g>
	<path class="st0" d="M801.3,3.6c1.3,10.3,9.2,18.9,18.2,28.7c10.7,11.6,22.7,24.8,22.7,43c0,18.2-12.1,31.4-22.8,43
		c-9,9.8-16.8,18.4-18.1,28.7h-16.8c1.2-16.7,12.6-29,22.6-40c9.8-10.7,18.3-20,18.3-31.7c0-11.7-8.5-20.9-18.3-31.7
		c-10.1-11-21.4-23.3-22.6-40L801.3,3.6 M804.1,0.6h-22.8c0,19.4,12.5,33,23.5,45c9.4,10.3,17.6,19.2,17.6,29.7
		c0,10.5-8.1,19.4-17.6,29.7c-11,12-23.5,25.7-23.5,45h22.8c0-10.5,8.1-19.4,17.6-29.7c11-12,23.5-25.7,23.5-45
		c0-19.4-12.5-33-23.5-45C812.2,20,804.1,11.1,804.1,0.6L804.1,0.6z"/>
</g>
<g>
	<path class="st0" d="M920.5,3.6c-1.2,16.7-12.6,29-22.6,40c-9.8,10.7-18.3,20-18.3,31.7s8.5,20.9,18.3,31.7
		c10.1,11,21.4,23.3,22.6,40h-16.8c-1.3-10.3-9.2-18.9-18.2-28.7c-10.7-11.6-22.7-24.8-22.7-43s12.1-31.4,22.8-43
		c9-9.8,16.8-18.4,18.1-28.7L920.5,3.6 M923.6,0.6h-22.8c0,10.5-8.1,19.4-17.6,29.7c-11,12-23.5,25.7-23.5,45
		c0,19.4,12.5,33,23.5,45c9.4,10.3,17.6,19.2,17.6,29.7h22.8c0-19.4-12.5-33-23.5-45c-9.4-10.3-17.6-19.2-17.6-29.7
		s8.1-19.4,17.6-29.7C911.1,33.6,923.6,20,923.6,0.6L923.6,0.6z"/>
</g>
<path class="st0" d="M599.3,28.7c-31.1,0-47.7,21.6-47.7,50.6v71h24.1V80.2c0-17.5,9.7-28.5,25.8-28.5c6.6,0,13.4,1.7,19.2,5.1V32.9
	C614.6,30.2,606.9,28.7,599.3,28.7"/>
<path class="st0" d="M514.6,90.5v59.8h-24.1V90.7c0-16.5-9.7-30.8-24.1-36.9c-4.7-1.9-9.8-3-15.3-3c-22.2,0-39.4,18-39.4,39.9
	c0,21.6,17.3,39.6,39.4,39.6c5.5,0,10.7-1.1,15.3-3V150c-5.8,2.1-12.2,3.3-19,3.3c-34.5,0-59.8-28.2-59.8-62.8
	c0-34.1,27.3-62.3,63.5-62.3c5.3,0,10.4,0.6,15.3,1.7c9,2,17.1,5.8,24.1,11.1C505.4,52.2,514.6,69.9,514.6,90.5"/>
<path class="st0" d="M59.3,44.2L0,105.4l17,17l59.2-61c11.7-11.7,28.7-14.9,43.1-9.1c4.7,1.9,9.1,4.8,13,8.7
	c15.7,15.7,15.2,40.6-0.3,56.1c-15.3,15.3-40.2,15.8-55.9,0.1c-3.9-3.9-6.8-8.3-8.7-13l-16,16c2.6,5.6,6.3,10.9,11.1,15.8
	c24.4,24.4,62.3,22.4,86.7-2.1c24.1-24.1,24.7-63.3-0.9-88.9c-3.8-3.8-7.8-7-12-9.6c-7.8-4.9-16.3-8-24.9-9.2
	C93,23.7,73.9,29.6,59.3,44.2"/>
<path class="st0" d="M360.6,77.4v72.9h-24.3V77.4c0-13.5-10.9-24.3-24.3-24.3S287.7,64,287.7,77.4v72.9h-24.3V77.4
	c0-13.5-10.9-24.3-24.3-24.3S214.8,64,214.8,77.4v72.9h-24.3V77.4c0-26.9,21.8-48.7,48.7-48.7c14.6,0,27.6,6.4,36.5,16.5
	c8.9-10.1,21.9-16.5,36.5-16.5C338.9,28.7,360.6,50.5,360.6,77.4"/>
<g>
	<path class="st0" d="M736.1,52.1V31.2h-45.7V0.3h-24.1v30.9h-23.6v20.9h23.6v55.5c0,27.3,15.8,46,45.5,46c8.7,0,18.2-2.7,24.3-6.8
		v-22.1c-5.8,4.1-14.4,7.1-22.1,7.1c-14.4,0-23.6-9.3-23.6-24.8V52.2h45.7V52.1z"/>
</g>
</svg>
