<svg width="178" height="187" viewBox="0 0 178 187" fill="none" xmlns="http://www.w3.org/2000/svg">
<path d="M178 187L150.143 187C150.143 173.796 140.219 162.733 128.728 149.885C115.147 134.719 100 117.767 100 93.5C100 69.2328 115.321 52.103 128.728 37.1145C140.219 24.2672 150.143 13.0258 150.143 -4.2568e-06L178 -1.82145e-06C178 24.2672 162.679 41.3969 149.272 56.3855C137.781 69.2328 127.857 80.4742 127.857 93.5C127.857 106.704 137.781 117.767 149.272 130.615C162.679 145.603 178 162.733 178 187Z" fill="#CCFF14"/>
<path d="M0.502174 186.5C0.710657 162.716 15.7675 145.854 29.1003 130.948C34.8399 124.531 40.2216 118.479 44.164 112.396C48.11 106.308 50.6429 100.146 50.6429 93.5C50.6429 86.7659 48.1105 80.6039 44.1635 74.5363C40.2444 68.5114 34.9024 62.539 29.2021 56.166L29.1003 56.0522L29.1001 56.052C15.5951 40.9691 0.708289 24.2822 0.502168 0.499993L27.3618 0.499996C27.4836 7.03971 29.9874 13.0466 33.8365 18.9637C37.7557 24.9886 43.0976 30.961 48.7979 37.334L48.8997 37.4478L48.8999 37.448C62.4993 52.6364 77.5 69.4513 77.5 93.5C77.5 117.548 62.3257 134.541 48.8997 149.552L48.8995 149.552L48.7225 149.751C43.1358 156.004 37.8247 161.95 33.902 167.969C30.0324 173.907 27.4857 179.957 27.3618 186.5L0.502174 186.5Z" stroke="white"/>
</svg>
