<svg width="178" height="187" viewBox="0 0 178 187" fill="none" xmlns="http://www.w3.org/2000/svg">
<path d="M0 0H27.8572C27.8572 13.2042 37.7812 24.2672 49.2723 37.1145C62.8527 52.2815 78 69.2328 78 93.5C78 117.767 62.6786 134.897 49.2723 149.885C37.7812 162.733 27.8572 173.974 27.8572 187H0C0 162.733 15.3214 145.603 28.7277 130.615C40.2188 117.767 50.1428 106.526 50.1428 93.5C50.1428 80.2958 40.2188 69.2328 28.7277 56.3855C15.3214 41.3969 0 24.2672 0 0Z" fill="white"/>
<path d="M177.498 0.5C177.289 24.2844 162.233 41.1457 148.9 56.0522C143.16 62.4692 137.778 68.5209 133.836 74.6039C129.89 80.6924 127.357 86.8544 127.357 93.5C127.357 100.234 129.889 106.396 133.836 112.464C137.756 118.489 143.098 124.461 148.798 130.834L148.9 130.948L148.9 130.948C162.405 146.031 177.292 162.718 177.498 186.5H150.638C150.516 179.96 148.013 173.953 144.164 168.036C140.244 162.011 134.902 156.039 129.202 149.666L129.1 149.552L129.1 149.552C115.501 134.364 100.5 117.549 100.5 93.5C100.5 69.4515 115.674 52.4586 129.1 37.4478L129.101 37.4476L129.277 37.2495C134.864 30.9956 140.175 25.0502 144.098 19.031C147.968 13.0933 150.514 7.04313 150.638 0.5H177.498Z" stroke="#CCFF14"/>
</svg>
