<svg width="178" height="187" viewBox="0 0 178 187" fill="none" xmlns="http://www.w3.org/2000/svg">
<path d="M178 187L150.143 187C150.143 173.796 140.219 162.733 128.728 149.885C115.147 134.719 100 117.767 100 93.5C100 69.2328 115.321 52.1031 128.728 37.1145C140.219 24.2672 150.143 13.0258 150.143 -2.43535e-06L178 0C178 24.2672 162.679 41.3969 149.272 56.3855C137.781 69.2328 127.857 80.4742 127.857 93.5C127.857 106.704 137.781 117.767 149.272 130.615C162.679 145.603 178 162.733 178 187Z" fill="#CCFF14"/>
<path d="M0 0L27.8572 0C27.8572 13.2042 37.7812 24.2672 49.2723 37.1145C62.8527 52.2815 78 69.2328 78 93.5C78 117.767 62.6786 134.897 49.2723 149.885C37.7812 162.733 27.8572 173.974 27.8572 187H0C0 162.733 15.3214 145.603 28.7277 130.615C40.2188 117.767 50.1428 106.526 50.1428 93.5C50.1428 80.2958 40.2188 69.2328 28.7277 56.3855C15.3214 41.3969 0 24.2672 0 0Z" fill="white"/>
</svg>
